<?xml version="1.0" encoding="UTF-8"?>
<svg id="Layer_2" data-name="Layer 2" xmlns="http://www.w3.org/2000/svg" xmlns:xlink="http://www.w3.org/1999/xlink" viewBox="0 0 273.05 254.51">
  <defs>
    <style>
      .cls-1 {
        fill: none;
      }

      .cls-2 {
        clip-path: url(#clippath);
      }

      .cls-3 {
        fill: #eba24e;
      }

      .cls-4 {
        fill: #fbefdb;
      }
    </style>
    <clipPath id="clippath">
      <rect class="cls-1" x="21.65" y="84.48" width="229.75" height="154.03"/>
    </clipPath>
  </defs>
  <g id="Layer_1-2" data-name="Layer 1">
    <path id="Path_38" data-name="Path 38" class="cls-3" d="M273.05,254.51H0V0H273.05V254.51Z"/>
    <g id="Group_19" data-name="Group 19">
      <g class="cls-2">
        <g id="Group_18" data-name="Group 18">
          <path id="Path_55" data-name="Path 55" class="cls-4" d="M97.44,102.2c-.1-1.89-2.06-3.07-1.47-5.85-1.06,1.94-.98,4.26-2.34,3.92-1.31-.33-1.1-2.55-1.07-4.02,.17-1.99,.78-3.92,1.78-5.65,.89-1.8,2.45-2.12,4.1-.99,.96,.73,1.87,1.53,2.71,2.39,2.67,2.48,4.33,2.36,6.46-.47,5.47-7.31,18.02-9.28,27.27-4.2,1.86,1.05,3.62,2.25,5.28,3.59,2.03,1.61,3.74,3.14,6.79,3.18,4.44,.06,6.53,6.32,3.99,10.06-1.23,1.81,.35,3.5,1.86,4.59,1.94,1.22,4.13,1.98,6.4,2.23,1.52,.16,2.83,1.15,3.39,2.57,2.01,4.86-2.71,11.62-7.87,10.94-1.75-.42-3.56,.41-4.38,2.01-2.05,3.21-5.16,5.6-8.78,6.76-.84,.29-1.91,.35-1.96,1.61-.06,1.28,.78,1.92,1.79,2.4,3.34,1.57,7.02,1.78,10.57,2.47,8.09,1.55,15.45,5.37,23.42,7.25,1.52,.36,3.6,1.7,4.55,.38,1.09-1.52-1.09-2.8-2-4.05-3.47-4.8-4.46-9.95-2.37-15.53,1.61-4.3,4.25-4.63,7.17-1.15,.7,.84,1.13,3.21,2.32,2.18,1.38-1.2,3.21-2.98,2.17-5.54-1.12-2.55-1.67-5.32-1.6-8.1,.11-2.46,.83-4.54,3.46-5.27,2.3-.72,4.78,.45,5.68,2.69,1.25,2.56,2.18,2.12,4.05,.59,5.68-4.66,11.84-7.85,19.33-4.08,3.96,1.97,7.53,4.63,10.58,7.83,2.15,2.28,4.41,4.44,6.54,6.73,1.69,1.81,3.45,1.6,5.05,.14,1.29-1.17,2.23-1.42,3.35,.37-1.49-2.62,.31-4.01,1.85-5.12,1.36-.97,2.77,.16,3.75,1.18,1.75,1.66,2.48,4.13,1.9,6.47-.46,1.67-2.2,.46-3.82,.62,6.03,.85,2.81,4.3,2.13,6.65-.79,3.21-3.39,5.66-6.64,6.27,4.05,.7,1.85,2.1,1,3.06-3.64,4.08-7.49,7.99-11.05,12.13-4.06,4.61-6.97,10.12-8.48,16.08-.49,1.66,.07,3.44,1.41,4.53,3.84,3.76,5,9,7.02,13.74,2.02,4.76,3.77,9.65,5.87,15.1,.77-2.62,1.36-4.74,2.02-6.83,.76-2.4,2-2.77,3.81-.86,5.77,5.83,7.27,14.66,3.75,22.07-.34,.85-.35,1.8-.03,2.66,1.7,7.11-2.74,12.79-10.08,12.86-1.98,.02-3.99,.2-5.92-.5-.97-.35-1.7-.1-1.98,.96-.42,2.08-2.36,3.48-4.46,3.24-9.36-.72-18.82,.61-28.1-.98-18.36-3.16-27.89-21.81-20.01-38.79,.32-.69,.63-1.38,1.34-2.94-5.63,5.35-11.01,3.8-16.47,1.67-1.41-.66-2.93-1.07-4.49-1.21-4.02-.04-6.33,3.02-5.94,7.13,.48,5.01,.93,10.04-.14,15.06-1.37,6.4-3.79,8.79-10.14,9.38-3.91,.36-7.86-.17-11.54-1.55-.92-.34-1.97-.76-2.04-1.95-.07-1.26,.99-1.71,1.85-2.37,1.39-1.07,4.08-.42,4.35-2.07,.15-.91-2.46-2.09-3.51-3.4-5.38-6.69-8.69-14.48-11.46-22.5-1.09-3.15-1.74-6.45-2.62-9.67-.14-.51-.38-1.29-.73-1.39-.73-.19-1.09,.59-1.3,1.15-.35,.92-.99,2.07-.7,2.82,1.48,3.83,.8,7.68,.48,11.53-.06,1.06-.23,2.11-.5,3.14-.29,.84-1.07,1.41-1.96,1.43-.67,.08-1.3-.3-1.54-.93-2.57-6.23-6.15-12.27-5.96-19.22,.46-13.38,3.57-26.53,9.15-38.7,.21-.61,.56-1.16,1.04-1.6,3.57-2.52,2.48-5.53,1.28-8.83-2.49-6.8-7.15-11.85-12.49-16.44-4.21-3.45-7.31-8.07-8.9-13.28-.35-1.2-1.02-2.74,.3-3.54,1.57-.95,1.21,1.57,2.48,1.74m102.52,66.41c.38-2.39-.94-2.96-2.55-3.24-3.5-.6-7.33-.79-9.62-3.89-2.7-3.66-5.79-3.68-9.83-2.71-6.94,1.67-13.93,3.68-21.23,2.1-1.54-.33-.89,.69-.55,1.21,2.06,3.22,3.83,6.69,7.17,8.88,6.29,4.11,12.59,8.21,13.95,16.5,.02,.45,.4,.81,.85,.79,.08,0,.15-.02,.23-.04,3.95-1.12,8.39-.94,11.07-5.16,1.21-1.91,3.31-3.28,5.08-4.82,3.07-2.67,5.22-5.8,5.45-9.63m26.37-31.81c6.75,.3,8.51-4.68,7-8.66-2.25-5.92-14.48-12.38-20.3-11.58-5.38,.74-8.15,5.49-5.44,9.89,4.27,6.92,10.85,9.89,18.74,10.34m-102.46-48.44c-5.9,0-11.8,5.74-12.04,11.69-.09,3.31,2.51,6.07,5.82,6.16,.19,0,.38,0,.56-.01,4.9-.31,10.56-5.12,11.68-9.92,1.07-4.58-1.48-7.92-6.02-7.91m-4.07,82.28c2.8,11.46,7.99,21.28,18.82,27.14-10.09-6.38-14.51-16.71-18.82-27.13m-4.62-1.96c-1.02,2.75-1.02,5.78,0,8.53v-8.53Zm-5.98-66.65c-1.2,3.99-2.69,6.6-6.41,6.92,3.7,.26,6.02-2,6.41-6.92m38.81,53.27l4.46,3.07c-.66-1.88-2.46-3.12-4.46-3.07"/>
          <path id="Path_56" data-name="Path 56" class="cls-4" d="M67.58,208.58c-2.42,6.78-5.98,11.77-9.85,16.59-4.02,5.01-9.27,8.04-15.15,10.19-1.45,.53-1.89-.57-1.91-1.55-.06-3.96,.04-7.89,2.19-11.46,2.76-4.37,4.43-9.34,4.86-14.49-1.06,1.84-2.11,3.69-3.19,5.52-3.82,6.49-7.77,12.91-11.43,19.5-1.69,3.04-4.59,3.8-7.35,4.98-.91,.39-1.23-.41-1.48-1.1-.72-1.86-.86-3.9-.41-5.84,1.62-6.34,3.67-12.56,6.13-18.62,2.02-5.21,2.5-10.93,4.68-16.15,2.2-5.25,4.15-10.6,6.3-15.87,1.96-4.8,2.87-9.67,1.34-14.76-.41-2.2-2.47-3.69-4.69-3.39-3.64,.11-7.26-.46-10.69-1.69-3.24-1.01-5.4-4.07-5.28-7.46,.08-1.76,.58-3.22,2.6-3.64,1.09-.22,1.58-.64,.87-1.92-6.85-12.3,.33-29.62,13.88-33.58,.27-.1,.54-.18,.82-.23,3.19-.36,4.98-1.65,5.46-5.3,.55-4.17,6.88-7.31,10.99-6.09,2.75,.82,3.78,3.85,2.22,7.77-.83,2.08-.44,2.71,1.62,3.42,7.08,2.44,13.54,5.97,18.57,11.69,.71,.92,1.92,1.3,3.03,.93,1.31-.32,2.65-.51,3.99-.72,4.43-.68,6.47,.36,8.06,4.08,1.64,3.84,.83,6.79-2.58,9.37-.57,.43-1.11,1.08-1.74,1.2-4.85,.95-5.47,4.41-6.15,8.63-1.19,7.29-5.56,12.47-12.7,15.05-.68,.25-1.85,.32-1.78,1.19,.04,.52,1.02,1.1,1.69,1.41,3.67,1.69,7.73,1.81,11.57,2.84,14.33,3.81,23.49,14.07,24.43,28.77,.62,9.72-4.12,17.34-11.46,23.44-5.55,4.48-11.96,7.79-18.83,9.73-2.5,.76-5.1,.23-7.65,.39-.92,.06-1.15-.66-1.33-1.39-.8-3.13,.37-5.78,2.24-8.11,.94-.89,1.06-2.34,.29-3.38-1.54-2.76-1.94-5.86-2.17-9.97m-31.41-68.6c.23,.35,.48,.67,.68,1.04,.29,.55-.73,1.59,.41,1.72,.76,.09,1.4-.73,1.61-1.51,.92-3.44,1.72-6.93,.62-10.47-.73-2.47-2.94-4.21-5.51-4.34-2.56-.3-3.94,1.32-4.84,3.39-1.5,3.38-2.48,6.96-2.9,10.63-.24,2.22-.23,4.24,1.29,6,.63,.73,1.35,1.34,2.4,.86,3.24-1.46,5.94-3.38,6.26-7.33h0Zm10.12,3.85c.44-1.02,1.61-1.51,2.65-1.11,.93,.25,1.61,1.05,1.69,2,.27,1.69,.06,3.43-.62,5.01-.38,.86-1.89,1.71-.66,2.74,1.46,1.21,3.18,2.41,5.24,1.67,5.15-1.86,9.97-10.03,9.24-15.43-.64-4.72-7.2-8.09-11.05-5.37-3.83,2.79-6.69,6.7-8.2,11.19-.15,.41-.48,1.24,.2,1.24,3.33-.02,2.38,2.18,2.22,4.01,0,.32,.05,.64,.14,.94,.26-.07,.6-.05,.76-.21,1.33-1.44,1.85-3.45,1.37-5.35-.27-1.65-1.73-1.07-3-1.31m28.57,49.58c-2.5,.93-3.84,3.02-5.19,5.46-.54-2.46,.32-4.7-.89-7.09v11.62c1.68-4.33,3.35-7.49,6.08-9.99m-12.11-59.62c5.79,7.09,.62,12.15-2.17,17.55,6.1-4.56,7.45-13.28,2.17-17.55m-21.22,1.83c1.43-4.65,.11-8.87-3.22-10.1,3.42,2.68,3.11,6.45,3.22,10.1m7.63,66.98c.84-2.81,.84-5.8-.02-8.6,.32,2.86-.12,5.73,.02,8.6m-23.25-46.35c2.18,.04,3.95-.5,3.64-3.43-.51,1.71-1.9,3.01-3.64,3.43"/>
          <path id="Path_57" data-name="Path 57" class="cls-4" d="M229.38,127.59c-.09,1.01-.94,.92-1.68,.64-1.92-.79-3.56-2.12-4.73-3.83-.46-.64-.57-1.36,.46-1.65,1.36-.37,5.89,3.17,5.95,4.84"/>
          <path id="Path_58" data-name="Path 58" class="cls-4" d="M116.22,99.89c1.55-1.24,2.61-2.98,3-4.92-.63-.41-.81,.14-1.09,.39-.79,.71-1.52,1.59-2.74,1.25-.51-.14-.52-.69-.25-1.06,.85-1.14,1.7-2.39,3.42-1.99,.96,.22,1.82,.8,1.63,1.9-.38,2.28-1.52,4-3.98,4.43"/>
          <path id="Path_59" data-name="Path 59" class="cls-4" d="M33.61,141.21c-.11,.91-.18,2.02-1.26,1.97-1.62-.07-1.66-1.52-1.71-2.72-.04-.84-.04-2,1.12-1.92,1.53,.11,1.65,1.52,1.85,2.67"/>
          <path id="Path_60" data-name="Path 60" class="cls-4" d="M36.18,139.97l-1.12,1.29c-.22-2.2,.95-5.36-3.06-4.11,.32-1.29,.81-1.83,1.82-1.79,1.11-.01,2.06,.8,2.22,1.9,.12,.9,.16,1.82,.14,2.73h0"/>
        </g>
      </g>
    </g>
  </g>
</svg>