<?xml version="1.0" encoding="UTF-8"?>
<svg id="Layer_2" data-name="Layer 2" xmlns="http://www.w3.org/2000/svg" xmlns:xlink="http://www.w3.org/1999/xlink" viewBox="0 0 273.05 254.51">
  <defs>
    <style>
      .cls-1 {
        fill: none;
      }

      .cls-2 {
        clip-path: url(#clippath);
      }

      .cls-3 {
        fill: #fbefdb;
      }

      .cls-4 {
        fill: #e2a8c7;
      }
    </style>
    <clipPath id="clippath">
      <rect class="cls-1" x="64.99" y="25.77" width="185.78" height="228.73"/>
    </clipPath>
  </defs>
  <g id="Layer_1-2" data-name="Layer 1">
    <path id="Path_39" data-name="Path 39" class="cls-4" d="M273.05,254.51H0V0H273.05V254.51Z"/>
    <g id="Group_37" data-name="Group 37">
      <g class="cls-2">
        <g id="Group_36" data-name="Group 36">
          <path id="Path_106" data-name="Path 106" class="cls-3" d="M225.34,57.79c.7,0,1.1,.5,1.62,.85,2.45,1.63,5.41,1.76,8.16,2.53,.8,.22,1.5-.47,2.08-1.08,3.75-3.93,7.22-8.11,10.38-12.52,.35-.49,1.03-1.25,.26-1.57-.81-.34-.23-2.31-2.1-1.45-1.2,.55-.65-1.29-1.21-1.92s.29-1.14,.92-1.22c1.98-.25,1.61-1.21,.8-2.36l.48-.36c.64,.23,.83,1.24,1.79,.96,.68-.2,.85,.53,.53,.74-1.79,1.18-.05,1.54,.64,2.12-.38,.25-.6,.52-.8,.51-.64-.03-1.09,.14-1.17,.81-.07,.55,.42,.41,.74,.5,.76,.23,1.13-.03,1.42-.76,.3-.95,.43-1.94,.41-2.93,.01-.46,.19-.89,.51-1.22v4.36c-.44,1.89-2.3,3.28-1.92,5.47,0,.18-.09,.36-.23,.47-2.52,1.56-3.28,4.57-5.39,6.49-1.86,1.69-2.8,4.12-4.83,5.75-1.87,1.5-5.45,2.63-7.61,1.45-1.7-.93-2.61-.62-3.86,.72-3.74,4-2.1,3.63-6.17-.2-.24-.27-.45-.57-.63-.88l.22-.34c1-.57,1.75-1.49,2.1-2.59,1.06-.31,1.96-1.04,2.48-2.02l.43-.29"/>
          <path id="Path_107" data-name="Path 107" class="cls-3" d="M235.17,28.23c2.08-1.5,2.85-1.47,4.66,.27,.72,.69,1.35,1.46,2.18,2.36-1.57,.85-2.11,2.72-3.99,3.1,.76,1.31,1.6,0,2.24,.35,.15,.75-.05,1.53-.55,2.12,1.88-.84,2.55-2.68,3.43-4.42,1.74,1.17,3.94,1.72,4.43,4.32,.22,1.15-.46,1.61-.85,2.35l-.48,.36c-.45-.04-1.05-.15-1.22,.31-.38,1-.59,1.07-1.3,.18-.94-1.19-2.61-1.2-3.84-2.06-.96-.67-1.78,.3-2.34,1.22-1.61,2.67-3.95,4.69-6.18,7.43-.25-.97,.07-1.99,.83-2.64,1.88-1.81,2.94-4.25,4.81-6.05,.73-.52,.91-1.55,.38-2.28-.03-.05-.07-.1-.11-.14-1.61-1.37-1.83-3.81-3.89-4.75,.33-.91,1.26-1.29,1.79-2.03"/>
          <path id="Path_108" data-name="Path 108" class="cls-3" d="M243.81,42.1c-.03,.81-.39,1.57-1.01,2.09-1.86,2.22-3.64,4.49-5.49,6.71-.94,1.13-1.2,2.74-2.76,3.46-1.23,.57-2.3,1.6-3.66,.42-.94-.81-.91-2.42,.2-3.88,1.91-2.52,3.91-4.97,5.89-7.43,.87-1.27,1.87-2.44,2.99-3.49,.67-.65,1.69-.79,2.52-.35,.94,.44,1.48,1.45,1.33,2.47"/>
          <path id="Path_109" data-name="Path 109" class="cls-3" d="M235.17,28.23c-.53,.73-1.46,1.11-1.79,2.03-.04,.54,.12,1.08,.46,1.5,1.52,2.09,1.61,2.96-.05,4.73-1.51,1.68-2.92,3.45-4.24,5.29-.74,.99-1.24,1.19-2.33,.28-2.54-2.12-2.74-1.66-.3-5.11,.66-.94,1.59-1.7,2.27-2.68,.66-.95,1.4-1.84,2.22-2.91-1.07-.37-2.39-.44-1.11-2.08,.56-.89,.65-2.01,.22-2.98,1.13-.52,.84,.84,1.54,.81,.87-.04,.42-1.17,1.39-1.34,.18,1.03,.8,1.93,1.71,2.45"/>
          <path id="Path_110" data-name="Path 110" class="cls-3" d="M209.88,71c-1.65-.49-1.87-1.42-.96-2.82,.52-.81,1.84-1.43,.85-2.73,.35-.9,1.11-1.87,.2-2.74-.99-.95,.08-1.19,.43-1.64,.51-.67,.9-.54,1.45,.14,.59,.55,1.27,1,2.01,1.33,.37,.22,.98,.56,1.18,.1,.74-1.7,1.76-.59,2.34-.12,.97,.78,2.24,1.43,1.94,3.2-.35,1.27,.41,2.58,1.68,2.93,.38,.1,.78,.11,1.17,.02-1.8,2.78-2.12,2.84-4.66,.89-1.05-.8-2.17-2.33-3.12-2.23-1.23,.13-2.35,1.53-3.47,2.44-.38,.38-.73,.8-1.02,1.25"/>
          <path id="Path_111" data-name="Path 111" class="cls-3" d="M216.17,50.99c-.88-.63-1.64-1.42-2.24-2.33-.6-.49-.69-1.37-.2-1.97,.05-.07,.12-.13,.18-.19,1.11-1.08,1.3-1.99-.34-2.86-.6-.28-.86-1-.58-1.6,.09-.18,.21-.34,.38-.46,.89-.96,.8-2.66,2.34-3.17,.15-.05,.36-.27,.35-.39-.34-2.65,2.1-3.31,3.39-4.79,.36-.41,.96-.77,1.04-1.22,.61-3.54,3.52-4,6.35-5.09,.07,.99-.42,1.94-1.26,2.47-4.19,3.28-6.05,8.25-8.98,12.44-1.29,1.84-1.06,3.93,.71,5.69,.73,.73,2.11,1.63,.34,2.78l-1.47,.68"/>
          <path id="Path_112" data-name="Path 112" class="cls-3" d="M220.12,63.03c-2.67-1.59-4.99-3.7-6.82-6.2,2.36,1.33,2.9-.39,3.63-1.76,.58-.36,.78-1.01,1.17-1.52l-.02,.02c.14-.05,.28-.1,.42-.13l.3,.29-.16,.92c-.41,.36-.5,.72,0,1.08,.55,.75,1.09,0,1.64,0-.25,.94-.06,1.94,.51,2.72-.42-.13-.85-.17-1.29-.14-.81,.18-1.36,.95-1.26,1.77,.1,.92,.89,.59,1.46,.58,.05,.71,.27,1.41,.63,2.02l-.22,.34m-2.6-4.56c.54-.42,1.29-.78,.55-1.64-1.49,.19-2.27,1.01-1.72,1.93,.43,.73,.88,.24,1.17-.29"/>
          <path id="Path_113" data-name="Path 113" class="cls-3" d="M216.17,50.99l1.47-.68c2.3,2.06,4.59,4.12,6.9,6.16,.42,.33,.71,.8,.8,1.33l-.43,.29c-.94-1.44-1.98-.92-3.02-.15,.1-1.09,1.23-2.6-1.08-2.72-.28-1.02-.74-1.78-2-1.47l-.3-.29c-.04-.59,.08-1.27-.6-1.59-.81-.38-.97,.47-1.4,.81-.2,.16-.41,.3-.62,.46,.1-.71,.19-1.42,.29-2.13"/>
          <path id="Path_114" data-name="Path 114" class="cls-3" d="M178.94,104.79l1.06-.48c-.23,.92-.83,1.71-1.67,2.16,0-.35-.01-.69-.02-1.04l.63-.65"/>
          <path id="Path_115" data-name="Path 115" class="cls-3" d="M204.46,75.91c-.3,.06-.74,.31-.78-.21-.04-.46,.45-.66,.81-.87l-.03,1.08"/>
          <path id="Path_116" data-name="Path 116" class="cls-3" d="M206.09,73.19c.08-.39,.1-.87,.52-1.02s.48,.27,.57,.57l-1.1,.45"/>
          <path id="Path_117" data-name="Path 117" class="cls-3" d="M204.46,74.85l.55-.57-.55,.57"/>
          <path id="Path_118" data-name="Path 118" class="cls-3" d="M205,74.29l.56-.55-.56,.55"/>
          <path id="Path_119" data-name="Path 119" class="cls-3" d="M205.55,73.75l.54-.56-.54,.56"/>
          <path id="Path_120" data-name="Path 120" class="cls-3" d="M108.99,202.2c.29,1.15,.32,2.34,.11,3.5-.51,1.98-1.84,2.73-3.64,1.75-1.07-.58-1.87-1.14-3.2-.54-.99,.45-1.72-.42-1.8-1.46-.1-1.27-.64-2.47-1.52-3.39-1.17-1.31-1.35-2.88-.55-3.87,1.21-1.25,3.08-1.6,4.65-.85,.42,.34,.89,.61,1.4,.8,1.65,.77,3.21,1.61,3.65,3.63,.04,.2,.59,.29,.9,.43"/>
          <path id="Path_121" data-name="Path 121" class="cls-3" d="M108.98,222.41c.59,.79,1.6,.6,2.4,1.01-.47,.63-.2,1.77-1.41,1.81-5.06-1.31-8.88-4.79-13.06-7.62-.51-.35-1.09-.94-.83-1.58,.39-.76,1.29-1.1,2.09-.78,2.67,1.42,6.09,1.48,7.98,4.27,.79,1.11,1.74,2.08,2.83,2.89"/>
          <path id="Path_122" data-name="Path 122" class="cls-3" d="M141,132.25c-.95-.85-1.69-1.91-2.16-3.09-.91-2.06-.71-2.89,1.13-4.33,.81-.6,1.21-1.61,1.01-2.6-.09-.72-.18-1.43-.28-2.15,1.01,.2,1.87,.86,2.31,1.79,.7,.49,1.38,.06,2.08,0,1.19-.16,2.37,.33,3.1,1.28,.39,.49,.74,1.17,.24,1.73-.65,.73-1.18,.02-1.55-.4-.95-1.12-2.41-1.67-3.87-1.46-.64,.01-1.19,.45-1.34,1.07-.27,.5-.09,1.12,.4,1.4,.36,.28,.69,.58,.99,.92,1.43,1.47,1.45,1.48,2.42-.38,.22-.43,.38-.85,.89-.84,.46,.06,.85,.34,1.06,.75,.62,.91,.04,1.51-.53,2.11-2.15,1.15-4.54,1.96-5.91,4.21"/>
          <path id="Path_123" data-name="Path 123" class="cls-3" d="M129.26,165.32c.1-.41,.11-.87,.59-1.06,.04-.02,.19,.08,.19,.13,0,.51-.42,.7-.76,.94h-.01Z"/>
          <path id="Path_124" data-name="Path 124" class="cls-3" d="M180.54,103.72l-.59,.57,.59-.57"/>
          <path id="Path_125" data-name="Path 125" class="cls-3" d="M178.33,106.45l-.54,.7,.54-.7"/>
          <path id="Path_126" data-name="Path 126" class="cls-3" d="M128.7,165.85l.56-.54h.01s-.54,.57-.54,.57l-.04-.03"/>
          <path id="Path_127" data-name="Path 127" class="cls-3" d="M128.74,165.89l-.54,.56-.05-.05,.55-.54,.04,.03"/>
          <path id="Path_128" data-name="Path 128" class="cls-3" d="M128.2,166.44l-.13,.08,.08-.13,.05,.05Z"/>
          <path id="Path_129" data-name="Path 129" class="cls-3" d="M112.91,182.79l-.09-.13,.13,.09-.04,.04Z"/>
          <path id="Path_130" data-name="Path 130" class="cls-3" d="M112.95,182.75l.09,.12-.12-.08,.04-.04Z"/>
          <path id="Path_131" data-name="Path 131" class="cls-3" d="M218.09,53.55l-.09-.07,.07,.09,.02-.02Z"/>
          <path id="Path_132" data-name="Path 132" class="cls-3" d="M219.73,60.63c-.05-.92,.73-1.43,1.09-2.14,.16-.09,.36-.09,.52,0,.32,.27,.51,.65,.54,1.07-.88,.03-1.3,.99-2.15,1.08"/>
          <path id="Path_133" data-name="Path 133" class="cls-3" d="M222.45,60.12c-.29,0-.54-.22-.54-.51,0-.01,0-.02,0-.03,.27-.03,.52,.18,.54,.45,0,.03,0,.06,0,.09"/>
          <path id="Path_134" data-name="Path 134" class="cls-3" d="M221.37,58.45c.04-.28,.26-.5,.54-.54-.03,.28-.25,.51-.54,.54"/>
          <path id="Path_135" data-name="Path 135" class="cls-3" d="M220.25,55.75l.57-.57-.57,.57Z"/>
          <path id="Path_136" data-name="Path 136" class="cls-3" d="M218.61,55.76v-1.12c.27,.04,.74-.33,.77,.2,.03,.43-.44,.67-.77,.92"/>
          <path id="Path_137" data-name="Path 137" class="cls-3" d="M217.55,57.35v1.15c-.32-.23-.39-.68-.15-.99,.04-.06,.09-.11,.15-.15"/>
          <path id="Path_138" data-name="Path 138" class="cls-3" d="M218.1,56.81l-.59,.59,.59-.59"/>
          <path id="Path_140" data-name="Path 140" class="cls-3" d="M204.5,74.83l-.03,.02h0l.03-.02Z"/>
          <path id="Path_141" data-name="Path 141" class="cls-3" d="M75.72,211.32c.84,.97,1.38,1.94,.96,3.19-.9,2.11,0,4.55,2.04,5.58,.68,.43,1.18,1.14,1.84,1.61,1.97,1.41,3.36,3.59,5.84,4.32,1.1,.32,.58,1.03,.44,1.74-.68,3.5-3.62,5.53-5.46,8.25-2.23,3.28-4.83,6.33-6.87,9.75-1.57,2.76-3.39,5.36-5.44,7.78-.28,.31-.54,.64-.79,.97h25.17c1.15-2,2.41-3.94,3.76-5.81,2.28-3.1,3.73-6.62,5.55-9.96,2.61-4.78,2.7-4.78,7.99-3.69,7.96,1.73,16.25,.94,23.74-2.27,6.29-2.77,11.53-7.47,14.95-13.43,.79-1.3,1.39-1.46,2.4-.35,1.94,2.16,3.68,4.6,5.93,6.36,3.52,2.76,2.46,6.99,3.96,10.36,.06,.17,.03,.37-.08,.52-2.06,1.96-1.41,4.78-2.27,7.12-1.15,3.16-2.14,6.37-1.92,9.81,.04,.48-.09,.95-.37,1.34h16.97c.08-.44,.27-.86,.54-1.23,2.65-3.72,4.29-8.05,4.78-12.58,.06-.82,.31-1.62,.72-2.33,1.7-2.39,1.3-5,.87-7.56-.72-4.32-.74-9.01-5.08-11.8-.14-.09-.2-.3-.28-.46-2.87-5.15-5.79-10.28-8.99-15.24-.49-.76-.75-1.44,.2-2.09,.9-.62,.67-1.37,.11-2.1-1.1-1.44-2.21-2.88-3.3-4.33-.99-1.16-1.32-2.74-.9-4.21,.8-3.38,1.93-6.85,.35-10.4-1.19-2.68-1.11-2.73,1.41-4.46,3.29-2.26,6.92-3.99,10.05-6.51,3.74-2.94,6.48-6.96,7.85-11.52,.94-3.1,1.65-6.6,.1-9.33-2.02-3.55-1.95-7.7-4.36-11.2,2.76-.39,4.81-1.75,6.96-2.91,3.37-1.82,6.16-4.51,9.55-6.27,4.76-2.46,6.27-6.91,6.66-11.65,.13-2.05,.75-4.03,1.82-5.78,2.45-3.95,4-8.39,4.54-13,.29-2.67-.8-5.23-.44-7.86,.39-2.94-.64-4.93-3.52-5.86-.12-.04-.17-.29-.36-.64,1.44,.06,1.86-1.19,2.6-2.02,1.47,.38,2.07,2.38,4.18,1.92-1.12-1.52-2.47-2.85-4-3.96-1.05-.74-1.66-1.96-1.63-3.25-.3,.06-.74,.31-.78-.21-.03-.45,.42-.65,.78-.85l.54-.56,.56-.55v.02s.53-.56,.53-.56h0c.08-.39,.1-.87,.52-1.02s.49,.27,.57,.57c1.28-.07,2.53,.42,3.43,1.34,.9,.89,1.85,1.73,2.8,2.58,.42,.38,.98,.71,1.39,.12,.29-.42-.13-.82-.49-1.12-1.46-1.21-2.77-2.48-1.33-4.79-1.31,.51-2.23,2.72-3.11,.15-1.65-.49-1.87-1.42-.96-2.83,.52-.81,1.84-1.43,.85-2.73-1.48,.73-1.83,3.04-3.99,2.84-.23-.02-.44,.14-.46,.37,0,.06,0,.11,.02,.17,.47,2.42-1.89,3.21-2.79,4.84-.3,.83-1.22,1.26-2.05,.96-.14-.05-.26-.12-.38-.2,.72,3.54-.64,5.32-4.21,5.73-.6,.07-.66,.21-.74,.76-.37,2.47-1.63,3.76-4.36,4.61-.46,.14-.43,.35-.4,.78,.11,1.58-1.68,4.31-3.19,4.46-1.02,.1-1.07,.17-1.08,1.17-.19,1.86-1.57,3.38-3.39,3.77-.76,.09-1.11,.37-.76,.93,1.19,1.87,.18,2.36-1.41,3.06-.87,.39-1.9,.22-2.9,.98,1.25,1.18,1.1,2.68,1.27,4.1l1.06-.48h-.05s.59-.58,.59-.58c1.4,.75,1.04,1.49,.16,2.5-.85,.98-1.38,2.32-2.91,.92l.54-.69c0-.34-.01-.68-.02-1.02-1.35-.02-2.69-.33-3.91-.91,.11,2.56-.58,3.65-2.79,4.18-.72,.17-.75,.33-.79,1-.13,2.26-.93,2.96-3.34,3.09,0,.26,.05,.52,.13,.76,.79,1.48-.57,2.2-1.26,2.91-.58,.6-1.2-.42-1.74-.85-1.58-1.06-3.34-1.82-5.2-2.25-3.33-.95-6.32-2.81-8.64-5.37-2.98-3.39-5.91-7-10.82-7.77-.65-.1-.77-.66-1.02-1.14-1.35-2.65-2.74-3.3-5.13-1.68-2.6,1.76-5.12,1.21-7.81,.79-1.4-.22-1.65-.95-1.4-2.06,.39-1.6,1.36-3.01,2.71-3.95,2.49-1.84,4.56-4.2,6.06-6.92,.4-1.04,1.42-1.7,2.54-1.65,1.78,0,3.39-1.02,4.18-2.61,2.04-3.48,2.76-7.58,2.02-11.55-.24-1.62-.45-3.28-1.7-4.51-2.31-2.27-2.51-5.43-2.97-8.23-.64-3.9-1.52-7.33-5.01-9.62-.68-.46-1.26-1.05-1.71-1.73-1.25-1.79-3-3.18-5.04-4-2.55-1.17-5.22-2.24-7.3-4.15-1.6-1.45-3.68-2.25-5.84-2.27-.27-.02-.64,.07-.8-.07-1.95-1.77-4.09-.78-5.76,.11-2.22,1.18-4.36,1.02-6.57,.73-3.11-.42-6.23,.76-8.28,3.14-.98,1.04-2.1,1.95-3.31,2.71-1.35,.87-3.04,1.25-4.01,2.72-3.05,4.61-6.15,9.19-9.17,13.83-1.21,1.84-1.78,4.03-1.61,6.23,.12,.81,.13,1.63,.03,2.44-.84,3.88,1.05,7.45,1.21,11.21,0,.17,.08,.42,.19,.48,1.59,.84,.68,2.02,.65,3.23-.05,2.01-1.97,4.46,1,6.03,.31,.16,.34,.82,.54,1.22,.52,1.26,1.13,2.48,1.84,3.64,2.69,3.85,5.97,6.66,11.15,5.45,.62-.13,1.27-.04,1.83,.26,3.48,1.57,7,2.76,10.94,1.7,1.17-.16,2.36-.14,3.52,.06,.96-.02,1.77,.71,1.86,1.67,.11,.92-.79,1.11-1.44,1.37-3.07,1.24-6.06,2.65-8.97,4.23-3.94,2.12-4.99,5.47-5.62,9.02-.79,4.51-.21,9.16,1.65,13.35,2.03,4.17,2.89,8.81,2.48,13.43-.11,.81-.11,1.64-.02,2.45,.29,2.1-.41,3.33-2.55,4.05-7.21,2.45-12.92,7.17-17.98,12.66-3.01,3.16-5.62,6.68-7.75,10.49-1.43,2.33-2.3,4.96-2.55,7.69-.3,5.18,.35,10.37,1.93,15.31,1.89,5.71,4.86,10.99,8.76,15.57m110.76-114.15l.15-.14-.14,.15-.15,.14,.14-.15Zm-9.43,14.03c.44-.94,1.14-1.93,2.25-.91,1.44,1.32,3.36,2.37,3.41,4.72,.02,.72,.55,.65,.93,.46,.86-.48,1.59-1.16,2.13-1.98,2.88-3.67,5.89-7.24,8.85-10.84-1.42,2.38-2.23,5.08-2.38,7.85-.07,1.35-1.24,2.07-2.56,2.46-2.1,.56-3.97,1.77-5.35,3.44-1.83,2.21-4.18,.53-5.7-1.92-.31-.51-.14-.81-1-.93-1.43-.2-1.02-1.45-.6-2.36m-3.55,3.85c.32-.56,.92-.89,1.56-.87,.55,.02,1.06,.26,1.44,.66,1.15,1,2.23,2.08,3.42,3.02,1.1,.87,.7,1.52,.04,2.45-.89,1.24-1.57,1.49-2.7,.27-1.09-1.18-2.41-2.14-3.54-3.29-.63-.58-.72-1.54-.22-2.23m-3.32,1.67c.61,.05,1.09,.34,1.06,.78-.1,1.02-.86,1.85-1.87,2.02-.36,.1-.84-.26-.79-.57,.21-.93,.79-1.73,1.6-2.24m-6.07,2.74c.28-.49,.53-.95,1.2-.89,.54,.05,1.05,.3,1.42,.71,2.5,2.06,4.66,4.51,7.3,6.41,1.32,.95,.28,1.66-.22,2.44-.72,1.13-1.31,.45-1.93-.11-2.41-2.15-4.82-4.3-7.23-6.45-.67-.59-1.04-1.23-.54-2.12m6.42,25.89c1.31,.88,2.06,2.39,1.96,3.96,.02,1.37-1,1.88-2.17,1.13-.61-.39-1.18-.84-1.69-1.36-.5-.4-.58-1.14-.18-1.64,.08-.1,.17-.18,.27-.25q1.68-1.5-.46-2.27c-.2-.1-.39-.22-.57-.35,.53-1.32,1.14-2.45,2.91-2.04,2.11,.49,3.24,2.23,3.08,4.98-.47-1.36-.51-2.91-2.06-3.65-.61-.29-1.26-.51-1.69,.17-.4,.62,.18,1.05,.59,1.32m-6.13-21.31c-.02,.5-.39,.72-.78,.91,.1-.4,.12-.86,.59-1.05,.04-.01,.18,.09,.18,.14m-6.94,.54c.85-.92,1.38-.57,2.17,.16,2.78,2.57,5.64,5.04,8.47,7.55,.46,.4,1.11,.65,1.11,1.4-.18,.62-.54,1.17-1.04,1.57-.59,.48-1-.02-1.39-.36-3.04-2.68-6.07-5.38-9.12-8.05-.83-.73-1-1.38-.18-2.26m-4.06,12.18c.11-.33,.38-.57,.72-.64,.09,.11,.27,.29,.25,.31-.17,.28-.39,.53-.66,.72-.32,.16-.44-.09-.32-.39m4.97,6.98c.34,.3,.66,.62,1.01,.9,.48,.39,.71,.8,.22,1.35-.3,.46-.91,.59-1.37,.3-.1-.06-.18-.14-.25-.23-3.25-2.88-6.52-5.74-9.76-8.62-1.19-1.06,.15-1.66,.33-2.56l9.8,8.87m-39.21,1.45c3.01-2.92,5.23-6.55,6.48-10.55,1.2-3.42,2.28-6.91,4.33-9.95,2.37-3.87,6.46-6.36,10.99-6.71,.24,.81-.58,1.39-.24,2.09,1.01,.2,1.87,.86,2.31,1.79,1.54-.54,3.04-.97,4.66-.12,2.7,1.42,3.04,3.4,.83,5.49-.46,.43-.88,.92-1.6,.8-2.15,1.15-4.54,1.96-5.92,4.21,.5,.86,1.13,1.64,1.86,2.32,.45,.51,1.14,.92,.67,1.84-.32,.66-1.03,1.05-1.77,.96-2.92,.06-5.75,1.06-8.07,2.84-5.78,4.2-8.04,11.74-5.52,18.42,.49,1.35,.68,2.79,.57,4.23-.12,1.63-1.05,1.88-2.38,1.88-1.29,0-2.48-.14-2.37-1.83,.12-1.81-.89-2.85-2.27-3.71-2.41-1.35-4.05-3.76-4.42-6.5-.31-1.66-1.33-3.1-2.8-3.93,1.64-1.25,3.24-2.29,4.63-3.57m10.89,19.19c0,.51-.42,.7-.76,.95l-.54,.56-.54,.56-.13,.08,.08-.13,.55-.54,.56-.54c.1-.41,.11-.87,.59-1.06,.04-.02,.19,.08,.19,.13m-19.77,7.87c2.01,.38,3.89,1.23,5.5,2.49,.82,.43,1.13,1.45,.7,2.26-.01,.02-.02,.04-.03,.06-.77,1.89-1.78,3.46-3.94,4.06-1.41,.4-2.36,.1-2.15-1.26,.32-2.02-.79-4.19,.62-6.08,.67-.9-.77-.8-.7-1.54m2.76,10.62l-.12-.08-.09-.13,.13,.09,.08,.12Zm-14.64,15.32c1.21-1.25,3.08-1.6,4.65-.85,.42,.34,.89,.61,1.4,.8,1.44-.24,3.45,.73,3.73-1.92,.05-.49,.78-.28,1.19-.12,.74,.31,1.46,.68,2.19,1.02-1.2,1.83-1.19,2.37,.49,3.74,1.54,1.26,3.22,2.35,4.79,3.57,1.16,.88,2.11,2.01,2.77,3.31,.33,.67,.6,1.5-.21,1.92-.88,.46-1.31-.16-1.42-1.02-.05-.66-.49-1.22-1.12-1.41-1.28-.39-1.72-1.51-2.32-2.51-.52-.86-.84-1.62-2.24-1.8-1.52-.2-2.37-1.82-2.29-3.53,.03-.72-.08-1.27-.79-1.52-.35-.13-.75,0-.97,.3-.38,.53-.41,1.23-.06,1.79,.33,.72,1.01,1.32,.83,2.23,.29,1.15,.32,2.34,.11,3.5-.51,1.99-1.84,2.73-3.64,1.75-1.06-.58-1.87-1.14-3.2-.54-.99,.45-1.72-.42-1.8-1.46-.1-1.27-.64-2.47-1.52-3.39-1.17-1.31-1.35-2.88-.55-3.87m-2.31,17.83c.39-.76,1.29-1.1,2.09-.78,2.67,1.42,6.09,1.49,7.98,4.27,.79,1.11,1.75,2.08,2.84,2.89,1.68,.34,3.07-.01,3.91-1.65,.22-.42,.52-.44,.84-.14,.19,.18,.4,.43,.19,.68-1.62,1.81,1.1,2.51,.99,3.93,.97,.05,1.91-.31,2.6-1,.05-.05,.17-.02,.26-.03,.52,3.54,4.15,4.42,8,.28,.94,.41,.81,1.53,1.43,2.2,1.96-.6,3.85-1.43,5.62-2.47,.62-.3,1.15-.83,.59-1.49-.69-.82-.89-.5-1.03,.48-.06,.4-.64-.29-.99-.45-1.26-.57-1.93-1.92-3.91-1.64-1.48,.21-1.41,.87-1.75,1.76-.57-1.95-1.43-3.69-1.4-5.74-.12-1.41-1.04-2.62-2.37-3.11-1.12-.37-1.73-1.58-1.36-2.71,.05-.14,.11-.28,.18-.41,.9-1.89,.21-3.34-.88-4.76-1.06-1.36-2.34-2.55-3.77-3.51-.73-.49-1.63-.9-1.6-2.23,1.93,.29,3.84,1.05,5.77,.08,.72-.36,1.02,.3,1.3,.96,1.65,3.8,4.07,4.16,6.8,1.01,.55-.64,1.46-1.15,1.11-2.41-1.39,.18-1.22,1.96-2.37,2.27-.93-8.59-.86-10.72,.67-14.27,.38,3.11,1,6.18,1.85,9.19,.52,2.02,1.15,4.01,1.88,5.96,.7,1.84,1.87,2.43,3.34,1.96s2.15-1.64,1.7-3.46c-.77-3.07-1.76-6.09-2.55-9.16-.71-2.09-.92-4.32-.63-6.51,1.22,2.8,2.16,5.71,2.8,8.7,.39,1.4,.69,2.82,1.18,4.18,.66,1.83,1.81,2.55,3.24,2.22,1.56-.36,2.37-1.62,1.75-3.67-1.17-3.9-1.89-7.96-3.68-11.66-.62-1.21-1.11-2.49-1.47-3.8-.38-1.55,.21-2.3,1.78-2.15,1.44,.14,2.85,.51,4.29,.71,2.03,.31,4.06-.54,5.25-2.21,.71-.76,.83-1.9,.29-2.79-.5-.92-1.64-1.26-2.56-.76-.02,.01-.04,.02-.06,.03-3,1.44-5.39,.5-7.58-1.69-1.94-1.94-4.4-3.27-7.08-3.85-1.3-.29-1.93-1-1.6-2.31,.39-1.55,1.68-1.07,2.69-.99,.85,.07,1.4,.79,2.07,1.25,5.35,3.65,10.99,4.2,16.67,1.05,5.71-3.16,8.09-8.32,7.96-14.74-.01-.45-.13-.91-.11-1.36,.07-1.55,.97-2.04,2.27-1.13,1.52,1.14,3.16,2.13,4.88,2.95,2.75,1.19,3.49,.92,5.11-1.73,.49-.8,1.32-1.62,2.2-1.11,1.62,.94,2.73,.33,3.88-1.07,.66,6.71-2.34,11.32-7.22,14.93-1.69,1.23-3.46,2.33-5.31,3.31-8.14,4.41-12.5,11.28-13.6,20.41-.64,5.3-.82,10.67-2.13,15.89-1.62,6.45-4.22,12.32-9.05,17.09-4.78,5.02-11.66,7.49-18.54,6.64-4.05-.44-8.1-1.04-11.74-3.12-5.07-1.31-8.88-4.78-13.06-7.62-.51-.35-1.09-.94-.83-1.58m-8.34-56.9c.96,.5,.72,1.41,.55,2.14-.94,4,.15,7.92,.34,11.88,.18,3.7,1.68,7.23,1.34,11.02-.15,1.68,1.38,2.11,2.68,2.64-.97,.72-1.62,.61-2.29-.35-1.16-1.83-3.41-2.64-5.47-1.98-1.65,.39-2-.15-2.35-2.08-.25-1.34-.16-2.86-1.62-3.75-.67-.35-.98-1.15-.71-1.86,.18-.6-.34-1.01-.95-1.02-.49-.01-.89,.37-.91,.85-.04,1.47-.8,2.82-2.03,3.62-.79,.64-.61,1.1,.5,.85,.13-.03,.29,.1,.44,.15-.94,2.16,1.28,1.78,2.2,2.71-.89,1.45-2.05,2.88-2,4.77,.05,2,.85,2.88,3.29,3.61q-.35,2.94,2.14,3.74c.06,.75-1.73,0-1.02,1.16,.33,.54,.96,.35,1.45,.04,.48-.27,.81-.76,.88-1.31,.07-.72,.4-.71,.88-.35,.35,.27,.65,.43,.24,1.04-1.96,2.88-1.63,4.23,1.33,6.02,.77,.47,1.62,.82,2.38,1.31,1.07,.48,1.67,1.64,1.44,2.79-.86-.12-.42-1.27-1.26-1.05-.22,.13-.37,.35-.4,.61-.04,.73,.52,1.43,1.03,1.4,1.39-.07,1.91,.75,2.7,1.65,.96,1.1,1.42,1.78-.04,2.71-.22,.14-.22,.64-.33,1.03-.27-.04-.54-.13-.78-.26-7.51-6.73-13.15-14.6-16.01-24.46-3.89-13.4,4.37-24.98,12.38-29.27"/>
        </g>
      </g>
    </g>
  </g>
</svg>