<?xml version="1.0" encoding="UTF-8"?>
<svg id="Layer_2" data-name="Layer 2" xmlns="http://www.w3.org/2000/svg" xmlns:xlink="http://www.w3.org/1999/xlink" viewBox="0 0 273.05 254.51">
  <defs>
    <style>
      .cls-1 {
        fill: none;
      }

      .cls-2 {
        clip-path: url(#clippath);
      }

      .cls-3 {
        fill: #fbefdb;
      }

      .cls-4 {
        fill: #aec865;
      }
    </style>
    <clipPath id="clippath">
      <rect class="cls-1" x="56.47" y="38.65" width="146.89" height="215.85"/>
    </clipPath>
  </defs>
  <g id="Layer_1-2" data-name="Layer 1">
    <g id="Group_42" data-name="Group 42">
      <path id="Path_46" data-name="Path 46" class="cls-4" d="M273.05,254.51H0V0H273.05V254.51Z"/>
      <g id="Group_29" data-name="Group 29">
        <g class="cls-2">
          <g id="Group_28" data-name="Group 28">
            <path id="Path_104" data-name="Path 104" class="cls-3" d="M58.84,112.06c-1.48,3.12-.82,6.03,.68,8.89,.51,.79,.42,1.83-.22,2.52-.5,.75-1.07,1.46-1.7,2.1-1.21,.93-.55,1.37,.32,1.76,1.64,.65,2.98,1.89,3.76,3.47,.28,.6,.74,.63,1.27,.67,1.99,.1,3.74,1.34,4.5,3.19,.57,1.16,1.47,2.11,2.59,2.75,2.5,1.44,5.36,2.12,8.24,1.97-.69,1.03-.73,1.83,.31,2.53,.44,.29,.63,.96,.92,1.46,.22,.39,.57,.79,.14,1.22-.4,.37-1,.42-1.45,.12-1.25-.64-2.29-1.43-1.03-3.54-2.2,1.12-3.8,3.13-4.4,5.53-.46,1.92-.97,4.33,1.91,5.31,.75,.25,.92,.94,.85,1.75-.07,.75-.24,1.68,.45,2.2,.92,.72,1.6,1.69,1.96,2.8,.4-2.24,.36-4.47,.55-6.67,.16-1.83,1.04-2.46,2.61-2.29,1.74,.18,3.5,.16,5.23-.08,1.39-.19,1.58,.43,1.64,1.44-.06,1.12,.31,2.21,1.04,3.06,1.6,1.39,.83,1.86-.54,2.6-1.2,.64-2.43,1.49-.85,3.1,.49,.5,.42,1.07-.6,1.01-1.27-.18-2.45,.7-2.63,1.97-.01,.09-.02,.18-.02,.27-.12,1.46,.85,2.36,2.37,2.59-1.21,0-2.33,.27-3.33-.9-.86-1.01-2.35-.84-3.45-.32-.96,.47-1.56,1.45-1.53,2.52,0,.85,.57,1.08,1.19,1.32,.35,.13,1.26-.18,.94,.48-.36,.75-.1,2.18-1.17,2.2-1.67,.03-2.49,1.13-3.58,2.01-.78,.63-1.33,1.63-2.58,1.74,1.68-2.18,3.47-4.28,4.2-6.96,.31-1.16-.27-7.23-.6-7.98-.65,2.58-1.8,4.98-2.47,7.59-.53,2.54-1.35,5.01-2.46,7.35-1.3,2.09-1.95,4.52-1.86,6.98,.05,.6-.32,1.43,.45,1.74,.77,.23,1.6-.03,2.11-.65,1.02-1.09,1.89-2.31,2.58-3.64,.25,.58,.41,.92,.54,1.27,1.06,3.3,3.88,5.73,7.31,6.28,.86,.09,1.56,.72,1.74,1.57,.83,4.1,1.8,8.16,2.27,12.34,.2,2.83,.86,5.62,1.96,8.24,1.35,2.77,1.93,5.84,1.69,8.91-.02,2.07,.63,4.1,1.86,5.77,1,1.77,1.67,3.71,1.98,5.72,.88,4.36-1.2,8.47-1.25,12.77,0,.23-.23,.45-.33,.69-1.09,2.38-2.5,4.6-4.18,6.6-1.09,1.61-2.03,3.32-2.81,5.1h91.77c-.49-1.65-.84-3.34-1.07-5.05-.05-.48-.16-.95,.41-1.13,.41-.12,.84,.11,.96,.52,.02,.05,.03,.1,.03,.16,.4,1.83,.83,3.65,1.18,5.49h9.9c-.08-.2-.17-.41-.25-.61-1.38-3.32-2.95-6.57-4.71-9.71-1.27-2.36-2.27-4.86-2.97-7.46-.52-1.32-.06-2.83,1.11-3.63,4.38-2.72,7.8-6.75,9.77-11.52,1.04-2.1,.75-4.61-.72-6.42-.81-1.1-.27-1.36,.75-1.31,1.5,.08,3-.19,4.37-.8,2.63-1.18,5.54-2.41,6.22-5.59,1.42-6.67,.62-13.63-2.28-19.8-.36-.8-1.94-1.93-.28-3.16,1.36-1,1.66-2.92,.66-4.28-.06-.08-.12-.16-.19-.23-1.04-1.12-1.89-2.41-2.52-3.81-.6-1.91-1.86-3.55-3.55-4.62-2.43-1.6-1.41-4.56-2.46-6.72-.11-.22,.5-.84,.83-1.21,.69-.61,1.06-1.51,1-2.43-.15-1.31,.62-1.68,1.72-1.81,1.69-.08,3.33-.53,4.82-1.31,.4-.25,1.14-.13,1.02-.91-.09-.55-.54-.74-.98-1.05-1.88-1.29-4.21-1.66-6.05-2.9-2.47-1.66-4.69-3.69-7.07-5.49-1.51-1.15-2.47-2.92-4.3-3.71-.44-.19-1.1-.84-1.2-.08-.21,1.63-1.78,2.59-1.86,4.17-.08,1.75-1.01,1.96-2.48,1.72-3.3-.55-6.17,1.41-6.14,4.67,.02,2.44-1.19,2.37-2.85,2.5-2.59,.2-5.19,.65-6.96,2.81-2.35,2.87-3.52,2.96-7.67,2.08-3.4-.71-6.89-1.39-10.25,.35-2.06,1.07-3.9,1.3-5.61-.78-1.05-1.2-2.34-2.15-3.8-2.79-1.86-.88-4.05-1.29-5.11-3.47-.28-.45-.59-.88-.92-1.3-.65-.98-1.46-2.32-2.72-2.13-.9,.23-1.84-.2-2.25-1.04-.44-.57-1.22-.95-.58-1.69,.59-.68,1.29-.2,1.9,.21,2.25,1.49,4.52,3.11,7.07,3.83,8.22,2.31,16.19,1.29,23.93-2.28,1.67-.77,3-2.07,5.17-2.19,2.89-.15,3.14-.97,2.79-4.01-.28-1.93,.01-3.91,.85-5.68,1.31-2.6,1.37-2.65-1.57-2.99-5.05-.53-10.04-1.47-14.94-2.81-1.77-.48-3.3-1.61-4.28-3.16-.78-1.04-.63-2.5,.34-3.36,1.09-.85,1.55,.33,2.23,1.02,1.25,1.28,5.06,2.82,6.33,1.48,1.88-1.98,4.63-2.87,7.32-2.39,1.17,.13,1.73-.17,1.67-1.59-.14-1.91,1.29-3.56,3.2-3.7,.14-.01,.28-.01,.42,0,3.11,.15,5.94-1.16,8.97-1.37,.98-.07,1.92-.67,1.67-1.71-.29-1.24,.25-2.29,.24-3.44-.01-1.43,.89-1.7,2.04-1.66,1.03,.03,2.07,.18,3.1,.11,1.09-.07,2.7-.41,2.83-1.17,.17-.91-1.4-1.17-2.31-1.54-1.77-.71-2.12-1.53-.82-2.84,1.21-1.26,1.8-2.98,1.62-4.72-.1-3.97,.47-7.91-.52-11.93-.72-2.94-2.42-6.2-5.39-6.8-2.18-.44-2.5-1.71-2.59-3.42-.06-1.57,.42-3.11,1.35-4.37,.81-1.12,1.4-2.37,1.76-3.7,.7-2.81-2.14-5.55-4.57-6.24-1.84-.52-2.87-1.31-2.9-3.57,.03-3.39-2.55-6.24-5.93-6.54-.95-.16-1.9-.38-2.82-.65-.67-.12-1.14-.72-1.12-1.4-.2-4.01-2.69-6.4-5.95-8.11-2.56-1.35-5.29-.67-7.94-.17-1.11,.23-2.27,.17-3.35-.17-2.05-.59-3.99-1.86-6.29-1.44-.85,.1-1.68-.26-2.2-.94-1.58-1.53-3.03-3.67-4.93-4.25-3.66-1.28-7.69-.94-11.08,.94-.94,.56-1.99,.93-3.08,1.06-1.61,.2-3.25,.19-4.83,.48-5.13,.93-9.94,2.96-12.88,7.28-2.6,3.83-6.75,4.55-10.26,6.37-2.89,1.49-6.24,2.11-9.01,4.07-3.82,2.66-6.69,6.47-8.2,10.87-1.24,3.78-3.13,7.32-5.58,10.46-1.36,1.65-3.19,2.97-4,5.05-.92,2.37-2.81,4.61-1.87,7.32,.98,2.85-.04,5.14-1,7.72-.89,2.38-1.35,5.09,.53,7.52,.76,.99,1.73,2.14,1.07,3.54m84.87,72.38c-.56,1.18-1.74,.18-2.64,.23-.84,.05-1.7-.12-2.53,0-2.93,.43-5.31-1.41-8.03-1.88-1.31-.23-1.55-1.59-1.28-2.93,.28-1.44,1.33-.9,2.14-.95,.97-.06,1.94-.01,2.92-.01h0c.06,0,.13,0,.19,0,3.65-.88,5.99,.93,7.83,3.78,.42,.65,1.86,.8,1.4,1.77m20.2,42.02c-3.5,.63-6.97-.26-10.46-.27-.92,0-1.37-1.17-2.44-1.02,2.38-1.38,5.03-2.21,7.77-2.41,1.87-.16,3.71-1.03,5.54,.32,.84,.62,1.9,1.01,1.76,2.26-.15,1.31-1.36,.98-2.17,1.13m4.14-44.29c-.35,.1-.71,.14-1.08,.14-.47-.05-.94-.14-1.4-.28-.63-.25-1.76,.32-1.84-.54-.1-.98,.31-1.93,1.09-2.53,.76-.43,1.71-.32,2.36,.28,.33,.3,.69,.56,1.09,.76,.64,.25,1.69,.23,1.63,1.05s-1.18,.81-1.85,1.12m26.04-8.12c.23,.25,.5,.48,.31,.82-.16,.29-.53,.4-.83,.24-.07-.04-.12-.08-.17-.14-1.41-1.32-3.49-1.12-4.98-2.23-.24-.24-.62-.25-.88-.04-1.02,.88-1.56,.1-2.37-.75,2.33,0,3.53-1.32,4.59-2.93,.37-.56,.94-1.35,1.71-.68,.81,.7,.27,1.46-.38,1.95-1.36,1.01-.94,1.64,.26,2.44,.87,.58,2,.53,2.74,1.33m-80.86-19.51c.18-.84,.61-1.6,1.24-2.19,.63-.87,.66,.44,1.05,.45,3.38,.12,5.49,3.09,8.7,3.77,2.45,.51,3.39,2.41,3.33,5.04-.01,.46,.33,.68,.4,.99,.53,2.53,1.77,4.95,1.05,7.69-.26,1.01-.22,1.94,1.52,1.86,2.95-.13,3.39-.2,4.3-2.65,.17-.46,.29-.72,.77-.48,1.45,.73,1.68-.4,1.89-1.31,.4-1.81,.5-3.6-1.42-4.94,1.15-.37,1.43,.37,1.85,.67,1.45,1.12,3.37,1.45,5.11,.87,.5-.15,1.08-.36,1.46,.09s-.13,.84-.33,1.21c-1.02,1.93-.1,3.91-.03,5.84,.04,1.12,1.35,1.53,2.55,1.33,.38-.07,.83-.22,1.01,.24,.16,.39-.08,.72-.43,.98-.96,.6-1.24,1.87-.63,2.82,.09,.14,.2,.27,.32,.39,.95,1.09,2.9,1.5,3.68,.49,1.44-1.88,2.84-.54,3.87-.17,1.63,.59,2.9,.81,3.91-.69,.97-1.43,.42-2.7-1.02-3.79,1.11-.8,2.98-1.12,2.25-2.89-1.01-2.43-1.37-5.59-5.14-5.55-.32,0-.64-.38-1.08-.67,.96-.9,1.87-.54,2.75-.26,2.36,.75,4.51,.62,6.06-1.57,1.91-2.7,4.72-3.11,7.69-3.24,2.68-.12,3.05-.5,3.35-3.19,.03-2.3,1.92-4.14,4.22-4.11,.09,0,.18,0,.27,.01,.52-.03,1.04-.01,1.56,.04,1.71,.23,2.65-.42,2.5-2.21-.11-1.22,.76-1.72,1.55-2.24,.44-.32,1.05-.28,1.45,.1,.5,.49,.22,1.01-.16,1.36-1.07,.75-1.33,2.23-.58,3.29,.15,.22,.35,.41,.57,.57,1.09,.95,2.23,1.84,4.25,1.21,1.86-.67,3.94-.41,5.58,.7-2.11,.88-3.68,2.5-5.99,2.58-.8,.03-1.1,.61-1.1,1.34,.02,.32,.08,.64,.18,.95,1.86,6.17-2.32,8.51-7.01,7.79-2.18-.33-2.43,.32-2.47,2.24-.11,3.17-2.31,5.89-5.39,6.65-1.72,.35-3.35-.66-4.99-1.15-.23-.07-.38-.35-.6-.48-3.08-1.84-3.73-1.68-5.02,1.6-.92,2.65-2.68,4.93-5.02,6.49-.61,.38-1.22,.91-1.95,.51-.96-.51-.03-1.11,.05-1.66,.27-.98-.18-2.02-1.09-2.48-.88-.53-2.02-.28-2.6,.57-.55,.94-1.06,2.03,.12,2.96,.27,.17,.48,.42,.62,.71-2.53,.06-4.48-1.36-6.11-2.94-1.67-1.77-3.03-3.82-4.02-6.04-.56-1.28-2.06-1.86-3.34-1.3-.07,.03-.14,.06-.2,.1-2.97,1.5-6.42,1.73-9.56,.64-1.45-.48-1.6-1.76-2.36-2.62-.68-.76-1.15-1.41-2.27-1.48-.94-.06-1.83-.48-.62-1.49,.61-.51,.31-.79-.11-1-1.01-.36-1.55-1.47-1.2-2.49,.25-1.25-.45-2.29-1.86-2.03-1.87,.34-2.76-1.6-4.4-1.65-.05,0-.15-.07-.15-.11,.08-2.46-3.01-3.46-2.74-6.1m-20.6-11.45c.58,.17,.77-.81,1.4-.29,.22,.64-.51,.96-.62,1.5-.28,1.33-.32,2.54,1.47,2.69,1.08,.09,1.63,.4,1.34,1.67-.22,1.06,.28,2.14,1.23,2.67,.9,.63,2.15,.42,2.79-.47,.17-.17,.4-.27,.65-.28,1.42,1.88,2.11-.15,3.05-.64,1.04,1.88,.57,2.28,4.11,.72-.5,1.18-1.94,2.13-.56,3.43,.28,.27-.03,.57-.38,.7-1.59,.62-1.07,1.97-.78,2.97,.26,.95,1.24,1.52,2.19,1.26,.1-.03,.2-.06,.3-.11,.3-.1,.64-.07,.92,.08,1.5,1.49,3.55,2.29,5.67,2.2,.31-.03,.86,.09,.81,.62-.03,.36-.4,.48-.73,.5-2.99,.07-5.96-.4-8.78-1.39-1.4-.44-1.38-2.29-1.46-3.59-.12-2.03-1.21-2.91-3-3.3-2.51-.56-5.04-1.08-7.53-1.71-2.24-.57-2.96-1.55-3.02-3.83-.02-.58-.08-1.16-.11-1.75-.08-1.56-.6-2.5-2.42-1.92-.52,.08-1.05,.09-1.57,.02,1.76-2.48,2.1-2.61,5.06-1.74"/>
          </g>
        </g>
      </g>
    </g>
  </g>
</svg>