<?xml version="1.0" encoding="UTF-8"?>
<svg id="Layer_2" data-name="Layer 2" xmlns="http://www.w3.org/2000/svg" xmlns:xlink="http://www.w3.org/1999/xlink" viewBox="0 0 307.94 99.8">
  <defs>
    <style>
      .cls-1, .cls-2 {
        fill: none;
      }

      .cls-2 {
        stroke: #fff;
        stroke-linecap: round;
        stroke-linejoin: round;
      }

      .cls-3 {
        clip-path: url(#clippath);
      }

      .cls-4 {
        fill: #fff;
      }

      .cls-5 {
        fill: #7e3330;
      }

      .cls-6 {
        fill: #631715;
      }

      .cls-7 {
        clip-path: url(#clippath-1);
      }
    </style>
    <clipPath id="clippath">
      <rect class="cls-1" y=".11" width="99.69" height="99.69"/>
    </clipPath>
    <clipPath id="clippath-1">
      <rect class="cls-1" x="114.64" y="0" width="193.3" height="95.9"/>
    </clipPath>
  </defs>
  <g id="Layer_1-2" data-name="Layer 1-2">
    <g id="Group_105" data-name="Group 105">
      <g class="cls-3">
        <g id="Group_104" data-name="Group 104">
          <path id="Path_1666" data-name="Path 1666" class="cls-4" d="M99.69,49.95c0,27.53-22.32,49.85-49.85,49.85S0,77.48,0,49.95,22.32,.11,49.85,.11h0c27.53,0,49.85,22.32,49.85,49.85"/>
          <path id="Path_1667" data-name="Path 1667" class="cls-6" d="M24.36,42.98l46.89-19.6,2.82,6.12-.47,.21,13.25,31.82c1,2.08,.13,4.59-1.96,5.59-.04,.02-.08,.04-.13,.06-3.87,2.08-51,21.11-51,21.11,0,0-5.35,1.34-6.54-4.01S13.1,47.21,13.1,47.21l-4.01-5.01L59.94,6.96s1.64-1.64,3.72,2.68l2.38,3.72L24.36,42.98Z"/>
          <path id="Path_1668" data-name="Path 1668" class="cls-4" d="M20.24,36.99l6.39,1.93,4.31-2.97-6.72-1.72s-3.98,2.76-3.98,2.76Z"/>
          <path id="Path_1669" data-name="Path 1669" class="cls-4" d="M27.53,41.6l-1.93,6.39,5.35-2.23,1.64-6.22-5.06,2.06Z"/>
          <line id="Line_7" data-name="Line 7" class="cls-2" x1="21.58" y1="58.4" x2="73.32" y2="37.29"/>
          <line id="Line_8" data-name="Line 8" class="cls-2" x1="35.16" y1="52.86" x2="39.57" y2="64.5"/>
          <line id="Line_9" data-name="Line 9" class="cls-2" x1="60.16" y1="42.66" x2="64.52" y2="53.44"/>
          <line id="Line_10" data-name="Line 10" class="cls-2" x1="25.59" y1="70.3" x2="77.93" y2="48.45"/>
          <line id="Line_11" data-name="Line 11" class="cls-2" x1="30.06" y1="81.45" x2="82.39" y2="60.04"/>
          <path id="Path_1670" data-name="Path 1670" class="cls-4" d="M38.47,36.96l-1.82,6.43,5.31-2.32,1.53-6.25-5.02,2.15h0Z"/>
          <path id="Path_1671" data-name="Path 1671" class="cls-4" d="M49.36,32.48l-1.87,6.41,5.33-2.29,1.57-6.24-5.03,2.11h0Z"/>
          <path id="Path_1672" data-name="Path 1672" class="cls-4" d="M59.98,28.09l-1.88,6.41,5.33-2.27,1.58-6.24-5.04,2.1h0Z"/>
          <path id="Path_1673" data-name="Path 1673" class="cls-4" d="M28.61,31.09l6.39,1.93,4.31-2.97-6.72-1.72-3.98,2.76Z"/>
          <path id="Path_1674" data-name="Path 1674" class="cls-4" d="M36.37,25.45l6.39,1.93,4.31-2.97-6.72-1.72s-3.98,2.76-3.98,2.76Z"/>
          <path id="Path_1675" data-name="Path 1675" class="cls-4" d="M43.69,20.09l6.39,1.93,4.31-2.97-6.72-1.72s-3.98,2.76-3.98,2.76Z"/>
          <path id="Path_1676" data-name="Path 1676" class="cls-4" d="M51.17,14.71l6.39,1.93,4.31-2.97-6.72-1.72-3.98,2.76Z"/>
          <path id="Path_1677" data-name="Path 1677" class="cls-6" d="M40.89,8.89s-19.3,2.29-26.51,21.97c0,0,10.67-17.05,26.51-21.97"/>
          <path id="Path_1678" data-name="Path 1678" class="cls-6" d="M57.05,93.39s19.42-.83,28.09-19.91c0,0-11.92,16.2-28.09,19.91"/>
        </g>
      </g>
    </g>
  </g>
  <g class="cls-7">
    <path class="cls-5" d="M145.54,37.4h-9.1l-.85-4.05c1.7,0,2.1-.65,2.1-2.35v-10c0-1.5,.2-4.15,.2-4.15,0,0-.9,2.5-1.7,4.1l-4.65,9.3h-2.7l-4.5-9.05c-.85-1.75-1.7-4.15-1.7-4.15,0,0,.2,2.5,.2,4.2v9.75c0,1.7,.4,2.35,2.1,2.35l-.85,4.05h-8.6l-.85-4.05c1.7,0,2.1-.65,2.1-2.35V13c0-1.75-.4-2.35-2.1-2.35l.85-4.05h7.75l7.25,15.25,7.3-15.25h7.75l.85,4.05c-1.7,0-2.1,.6-2.1,2.35V31c0,1.7,.4,2.35,2.1,2.35l-.85,4.05Z"/>
    <path class="cls-5" d="M172.24,37.4h-19.2l-.85-4.05c1.7,0,2.1-.65,2.1-2.35V13c0-1.75-.4-2.35-2.1-2.35l.85-4.05h18.5v7.2l-2.9,.65c-.3-2.45-.8-2.95-3.8-2.95h-3.55v7.75h3.35c1.7,0,2.35-.35,2.35-1.95l2.9,.85v7l-2.9,.8c0-1.6-.65-1.95-2.35-1.95h-3.35v8.4h5.25c2.65,0,3.1-.7,3.55-3.1l3.05,.7-.9,7.4Z"/>
    <path class="cls-5" d="M203.44,37.4h-9.2l-.85-4.05c1.35,0,1.85-.4,1.3-2.15l-.7-2.35h-8.7l-.7,2.35c-.5,1.9,.05,2.15,1.45,2.15l-.85,4.05h-8.1l-.85-4.05c1.6,0,2.1-.25,2.6-2.15l5.3-18.65c.35-1.15,.1-1.9-1.55-1.9l.85-4.05h13.65l.85,4.05c-1.65,0-1.9,.6-1.55,1.8l5.3,18.75c.55,1.85,1.05,2.15,2.65,2.15l-.9,4.05Zm-12.7-21.6c-.4-1.75-.9-6.2-.9-6.2,0,0-.65,4.5-1.05,6.2l-2.25,7.95h6.3l-2.1-7.95Z"/>
    <path class="cls-5" d="M228.09,37.4h-19.2l-.85-4.05c1.7,0,2.1-.65,2.1-2.35V13c0-1.75-.4-2.35-2.1-2.35l.85-4.05h9.5l.85,4.05c-1.7,0-2.1,.6-2.1,2.35v19.2h5.15c2.65,0,3.1-.7,3.55-3.1l3.15,.65-.9,7.65Z"/>
    <path class="cls-5" d="M242.29,37.9c-4.7,0-8.6-1.95-10.1-3l1.4-6.65h2.55c.8,3.5,3.6,4.75,6.1,4.75,1.65,0,3.9-.95,3.9-3.7,0-2.25-1.4-3.4-5.35-4.25-3.85-.85-8.4-3.15-8.4-9.4s4.65-9.55,10.05-9.55c4.15,0,7.8,1.45,9.3,2.4l-1.35,6.3h-2.5c-1-2.95-3.45-3.95-5.4-3.95-2.15,0-3.65,1.25-3.65,3.3,0,1.9,1.5,3.05,4.4,3.7,5.1,1.1,9.5,3.15,9.5,10s-5.1,10.05-10.45,10.05"/>
    <path class="cls-5" d="M271.49,13.5h-2.55c1.35-2.3,2-3.45,2-5.65s-2.25-2.9-2.25-5c0-1.55,1.2-2.85,2.8-2.85,1.85,0,3.85,1.4,3.85,5.05,0,3-1.7,6.2-3.85,8.45"/>
    <path class="cls-5" d="M305.89,13v24.5h-5.2l-9.9-16.95c-.7-1.2-1.7-3.85-1.7-3.85,0,0,.25,2.8,.25,3.95v10.35c0,1.7,.4,2.35,2.1,2.35l-.85,4.05h-8.25l-.85-4.05c1.7,0,2.1-.65,2.1-2.35V13c0-1.75-.4-2.35-2.1-2.35l.85-4.05h7.45l8.85,15.15c.8,1.3,1.75,3.95,1.75,3.95,0,0-.25-2.8-.25-4.15V13c0-1.75-.4-2.35-2.1-2.35l.85-4.05h8.2l.85,4.05c-1.7,0-2.05,.6-2.05,2.35"/>
    <path class="cls-5" d="M145.54,95.4h-9.1l-.85-4.05c1.7,0,2.1-.65,2.1-2.35v-10c0-1.5,.2-4.15,.2-4.15,0,0-.9,2.5-1.7,4.1l-4.65,9.3h-2.7l-4.5-9.05c-.85-1.75-1.7-4.15-1.7-4.15,0,0,.2,2.5,.2,4.2v9.75c0,1.7,.4,2.35,2.1,2.35l-.85,4.05h-8.6l-.85-4.05c1.7,0,2.1-.65,2.1-2.35v-18c0-1.75-.4-2.35-2.1-2.35l.85-4.05h7.75l7.25,15.25,7.3-15.25h7.75l.85,4.05c-1.7,0-2.1,.6-2.1,2.35v18c0,1.7,.4,2.35,2.1,2.35l-.85,4.05Z"/>
    <path class="cls-5" d="M164.99,95.9c-7.55,0-12.8-4.3-12.8-15.9s5.25-15.9,12.8-15.9,12.8,4.3,12.8,15.9-5.2,15.9-12.8,15.9m0-26.2c-3.65,0-5.4,2.65-5.4,10.3s1.75,10.3,5.4,10.3,5.4-2.65,5.4-10.3-1.7-10.3-5.4-10.3"/>
    <path class="cls-5" d="M205.54,70.8l-7.75,24.75h-7.15l-7.6-24.75c-.6-1.85-1.1-2.15-2.65-2.15l.85-4.05h9.5l.85,4.05c-1.45,0-1.75,.5-1.3,2.15l3.35,11.55c.55,2,1,5.9,1,5.9,0,0,.55-4,1.1-5.9l3.65-11.55c.5-1.7,.05-2.15-1.5-2.15l.9-4.05h8.5l.85,4.05c-1.55,0-2,.25-2.6,2.15"/>
    <path class="cls-5" d="M222.09,95.4h-9.45l-.9-4.05c1.75,0,2.1-.65,2.1-2.35v-18c0-1.75-.35-2.35-2.1-2.35l.9-4.05h9.45l.85,4.05c-1.7,0-2.1,.6-2.1,2.35v18c0,1.7,.4,2.35,2.1,2.35l-.85,4.05Z"/>
    <path class="cls-5" d="M248.89,95.4h-19.2l-.85-4.05c1.7,0,2.1-.65,2.1-2.35v-18c0-1.75-.4-2.35-2.1-2.35l.85-4.05h18.5v7.2l-2.9,.65c-.3-2.45-.8-2.95-3.8-2.95h-3.55v7.75h3.35c1.7,0,2.35-.35,2.35-1.95l2.9,.85v7l-2.9,.8c0-1.6-.65-1.95-2.35-1.95h-3.35v8.4h5.25c2.65,0,3.1-.7,3.55-3.1l3.05,.7-.9,7.4Z"/>
    <path class="cls-5" d="M264.79,95.9c-4.7,0-8.6-1.95-10.1-3l1.4-6.65h2.55c.8,3.5,3.6,4.75,6.1,4.75,1.65,0,3.9-.95,3.9-3.7,0-2.25-1.4-3.4-5.35-4.25-3.85-.85-8.4-3.15-8.4-9.4s4.65-9.55,10.05-9.55c4.15,0,7.8,1.45,9.3,2.4l-1.35,6.3h-2.5c-1-2.95-3.45-3.95-5.4-3.95-2.15,0-3.65,1.25-3.65,3.3,0,1.9,1.5,3.05,4.4,3.7,5.1,1.1,9.5,3.15,9.5,10s-5.1,10.05-10.45,10.05"/>
  </g>
</svg>