<?xml version="1.0" encoding="UTF-8"?>
<svg id="Layer_2" data-name="Layer 2" xmlns="http://www.w3.org/2000/svg" xmlns:xlink="http://www.w3.org/1999/xlink" viewBox="0 0 273.05 254.51">
  <defs>
    <style>
      .cls-1 {
        fill: none;
      }

      .cls-2 {
        clip-path: url(#clippath);
      }

      .cls-3 {
        fill: #fbefdb;
      }

      .cls-4 {
        fill: #92cdcc;
      }
    </style>
    <clipPath id="clippath">
      <rect class="cls-1" x="59.69" y="30.63" width="171.67" height="223.88"/>
    </clipPath>
  </defs>
  <g id="Layer_1-2" data-name="Layer 1">
    <g id="Group_44" data-name="Group 44">
      <path id="Path_45" data-name="Path 45" class="cls-4" d="M273.05,254.51H0V0H273.05V254.51Z"/>
      <g id="Group_25" data-name="Group 25">
        <g class="cls-2">
          <g id="Group_24" data-name="Group 24">
            <path id="Path_100" data-name="Path 100" class="cls-3" d="M73.36,254.51c1.57-1.11,3.23-2.1,4.94-2.97,2.47-1.04,4.7-2.59,6.52-4.56,.86-.92,1.81-1.76,2.71-2.64,.33-.33,.85-.62,.94-1.01,.66-2.8,3.01-3.82,5.16-5.05,.59-.4,1.08-.91,1.46-1.51,2.42-3.17,5.73-5.05,9.35-6.47,.58-.23,1.14-.52,1.67-.85,1.53-.98,3.25-1.62,5.04-1.9,.71,.01,1.41-.17,2.02-.53,1.16-.82,2.52-1.33,3.93-1.46,2.28-.36,4.32-1.61,5.69-3.46,1.99-2.54,4.85-3.63,7.93-4.18,2.15-.31,4.13-1.35,5.6-2.95,.47-.53,.91-1.09,1.41-1.59,2.04-2.1,2.35-4.41,.96-7.26-.22-.11-.49-.05-.64,.14-4.49,4.34-9.92,7.58-15.88,9.45-3.62,1.21-7.29,1.06-10.99,.81-1.64-.11-3.26-.49-4.9-.7-1.59-.07-3.16,.4-4.44,1.35-1.77,1.03-3.49,2.16-5.15,3.36-4.39,3.24-9.51,5.36-14.91,6.18-2.99,.36-5.83,1.53-8.2,3.39-1.18,.97-1.22,1.14-.12,2.13,.81,.74,1.74,1.36,2.54,2.11,.57,.53,1.18,1.2,.82,2.06-.37,.88-1.24,1.46-2.2,1.44-2.86,.33-5.71-.67-7.74-2.71-.79-.74-1.35-1.08-2.34-.11-1.01,.99-1.92,.69-2.66-.57-.54-.88-.83-1.89-.84-2.92,0-1.5-.05-3-.04-4.49,.09-.71-.11-1.42-.57-1.97-1.02-1.06-.8-2.26-.44-3.54,1.6-5.64,5.5-9.03,10.75-11.09,5.98-2.48,12.39-3.75,18.86-3.73,1.42,0,2.83,.2,4.2,.58,1.22,.33,2.52,.14,3.6-.51,3.26-1.61,6.19-3.76,9.28-5.65,3.69-2.26,7.58-4.19,11.04-6.82,1.07-.81,2.16-1.58,3.17-2.46,1.7-1.49,1.73-3.66,2.05-5.65,.81-5.13,1.34-10.29,1.59-15.48,.27-5.7,1.58-11.27,5.75-15.64,1.96-2.16,4.27-3.98,6.82-5.39,2.45-1.29,2.53-2.03,.68-4.1-.1-.12-.22-.22-.32-.35-2-2.53-4.29-3.46-7.76-3.04-6.34,.76-12.51-.82-18.47-3.05-2.71-.99-5.24-2.4-7.52-4.17-.62,1.43-.95,2.98-.99,4.54-.12,2.28-.26,4.56-.41,6.84-.03,.46,0,1.01-.58,1.15-.57,.14-.81-.34-1.09-.72-2.44-3.24-3.15-3.47-7.2-2.36-2.19,.6-2.77,.31-2.75-2.01-.12-1.88-.41-3.74-.87-5.56-.55-2.64-1.9-5.05-3.87-6.9-1.57-1.63-1.53-1.79,.22-3.24,1.89-1.67,3.98-3.1,6.23-4.25,.75-.19,1.2-.96,1-1.71-.03-.12-.07-.23-.13-.33-.42-1.51-1.07-2.95-1.92-4.27-.76-1.19-1.44-2.44-2.02-3.74-.2-.6-.48-1.16-.85-1.68-3.29-3.06-3.04-7.28-3.71-11.18-.42-2.48-.63-5-.92-7.5-.06-.47-.08-.94-.06-1.42,.2-2.1-.13-4.22-.97-6.17-1.5-3.89-1.25-7.57,1.3-10.97,.68-.95,.94-2.13,.75-3.28-.43-3.61-.23-7.26,.59-10.8,1.92-6.97,6.6-11.12,13.4-12.94,1.67-.38,3.09-1.47,3.88-2.99,3.7-6.29,8.92-10.78,16.2-12.44,4.4-1,8.48-.47,11.62,3.22,.69,.76,1.67,1.18,2.7,1.18,2.25,.37,4.55-.24,6.32-1.68,2.15-1.89,4.88-3,7.74-3.14,2.64-.13,5.2,.9,7.01,2.82,.85,1.05,2.16,1.62,3.51,1.54,1.04-.06,2.07,.19,2.95,.73,4.25,2.51,8.75,4.69,11.27,9.36,1.04,1.57,2.23,3.04,3.56,4.38,.5,.59,1.25,.6,1.91,.83,7.97,2.89,12.53,11.26,10.65,19.53-.37,1.29-.93,2.52-1.65,3.65-.65,.84-.62,2.02,.08,2.81,1.7,2.12,2.49,4.83,2.16,7.53-.07,1.33,.23,2.65,.88,3.82,1.29,2.61,2.31,5.35,3.47,8.02,1.87,4.33,.38,7.63-2.97,10.46-.75,.48-1.43,1.05-2.04,1.69,1.23,.83,2.62,.95,3.73,1.71,.89,.6,1.17,1.21,.63,2.15-2.17,3.81-1.55,7.75-.52,11.7,.12,.46,.29,.9,.44,1.35,.88,2.69,.66,2.64-2.21,2.88-3.28,.27-6.86,.36-8.38,4.38-.58,1.53-1.02,1.44-1.94-.07-1.02-1.69-2.04-3.37-3.01-5.08-.56-.98-1.2-1.4-2.29-.8-.49,.26-1.01,.45-1.55,.56-1.77,.39-2.62,1.21-2.98,3.25-1.09,6.24-7.37,10.25-13.63,9.08-.22-.07-.46-.13-.69-.16-.72,0-1.67-.92-2.09,.1-.41,.98,.44,1.73,1.21,2.32,1.26,.97,2.69,.75,4.09,.55,1.48-.22,2.93-.58,4.4-.85,2.34-.31,4.71-.16,6.99,.45,3.51,.74,6,3.33,8.97,5.05,1.93,1.11,3.23,2.98,5.03,4.28,4.34,3.11,8.73,6.13,13.21,9.04,4.8,3.15,9.41,6.59,13.8,10.29,2.44,1.97,4.68,4.17,6.7,6.57,.45,.44,.99,.77,1.58,.99,2.24,1.15,4.36,2.54,6.3,4.14,3.67,3.06,4.76,7.36,5.29,11.76,.42,2.49,.16,5.05-.76,7.4-1.61,3.89-4.6,7.05-8.39,8.88-2.82,1.41-2.88,1.43-1.73,4.44,.67,1.76,1.53,3.45,2.38,5.13,1.39,2.76,2.1,5.52,.74,8.56-.41,1.03-.6,2.13-.54,3.23-.03,1.58-.49,3.12-1.34,4.45-2.59,4.75-6.73,8.46-11.73,10.51-1.31,.56-2.83,1.02-3.99-.15-1.3-1.32-.28-2.67,.46-3.85s1.65-2.29,2.35-3.57c-1.15,.77-2.15,1.75-2.95,2.87-1.16,1.59-2.54,3.01-4.11,4.21-1.62,1.31-2.73,1.43-3.84,.63-1.19-.85-1.53-1.95-.99-3.8,.4-1.69,1.05-3.31,1.93-4.81,.77-1.29,1.22-2.75,1.32-4.25,.07-.61,.21-1.42-.58-1.6-.68-.15-.84,.62-1,1.1-.55,1.4-1.24,2.73-2.08,3.97-.48,.82-1.05,1.57-1.72,2.24-.84,.98-2.31,1.1-3.29,.26-.34-.29-.59-.68-.72-1.11-.34-.8-.45-1.68-.34-2.54,.28-2.74,.81-5.46,1.59-8.1,.15-.5,.54-.99,.12-1.72-1.62,.51-3.15,1.28-4.53,2.27-.7,.51-1.4,1.02-2.12,1.5-.8,.7-1.96,.8-2.86,.24-1.06-.63-1.59-1.86-1.33-3.06,.4-2.59,1.52-5.01,3.23-6.99,4.77-5.66,11.42-9.4,18.74-10.53,2.75-.44,3.45-1.36,3.54-4.1,.18-5.03,.04-10.08-.42-15.09-.31-2.28-1.39-4.39-3.05-5.98-2.37-2.42-4.99-4.59-7.81-6.46-6.67-4.76-13.41-9.41-20.13-14.09-.75-.52-1.44-1.25-2.54-1.09-.17,5.03,0,10.06,.54,15.06,.43,5.57,.94,11.13,.83,16.73-.02,.79,0,1.58,0,2.37-.15,.94,.39,1.85,1.29,2.17,1.58,.87,3.07,1.9,4.44,3.08,1.15,.89,1.26,1.82,.41,3.07-.45,.66-1.03,1.16-.48,2.07,.46,.76-.2,1.38-.61,1.89-.65,.9-1.42,1.7-2.29,2.37-2.49,1.73-2.77,4.16-2.46,6.84,.47,4.16-.15,8.36-1.78,12.21-1.45,3.35-1.7,7.09-.69,10.6,.62,2.59,.58,5.29-.11,7.86-.45,2.16-1.97,3.68-2.46,5.71l-95.97,.02Zm65.71-69.11c-1.63,3.65-1.56,7.11-2.64,10.3-.38,1.13,1.13,2.63,2.4,2.51,.86-.07,1.72-.05,2.58,.07,1.79,.21,1.8,.19,1.53-1.71-.55-3.79-2.4-7.1-3.87-11.16"/>
          </g>
        </g>
      </g>
    </g>
  </g>
</svg>