<?xml version="1.0" encoding="UTF-8"?>
<svg id="Layer_2" data-name="Layer 2" xmlns="http://www.w3.org/2000/svg" xmlns:xlink="http://www.w3.org/1999/xlink" viewBox="0 0 273.05 254.51">
  <defs>
    <style>
      .cls-1 {
        fill: none;
      }

      .cls-2 {
        clip-path: url(#clippath);
      }

      .cls-3 {
        fill: #fbefdb;
      }

      .cls-4 {
        fill: #91c591;
      }
    </style>
    <clipPath id="clippath">
      <rect class="cls-1" x="28.74" y="25.77" width="201.19" height="228.73"/>
    </clipPath>
  </defs>
  <g id="Layer_1-2" data-name="Layer 1">
    <path id="Path_37" data-name="Path 37" class="cls-4" d="M273.05,254.51H0V0H273.05V254.51Z"/>
    <g id="Group_17" data-name="Group 17">
      <g class="cls-2">
        <g id="Group_16" data-name="Group 16">
          <path id="Path_54" data-name="Path 54" class="cls-3" d="M176.14,140.38c1.32,2.57,2.56,5.18,4.02,7.66,.58,.66,1.35,1.13,2.2,1.35,2.12,.82,2.73,1.76,2.55,3.99-.14,1.39,.31,2.78,1.25,3.81,4.15,4.63,8.26,9.33,13.49,12.8,3.48,2.34,7.37,4.02,11.46,4.95,4.96,1.1,8.81,3.68,11.02,8.32,1.69,3.59,2.43,7.56,2.16,11.52-.3,5.01-.87,9.99-1.32,14.99-.07,.83-.1,1.67-.17,2.51-.14,.89,.26,1.79,1.02,2.27,.93,.66,1.43,1.78,1.29,2.91-.23,5.64-.3,11.29-.5,16.93-.05,.62-.32,1.2-.77,1.63-3.94,3.43-7.79,6.95-12.32,9.66-2.49,1.49-4.78,3.34-7.17,5.03-1.23-5.67-2.44-11.13-3.6-16.6-.92-4.31-1.77-8.64-2.71-12.95-.39-1.79-.83-3.44,.55-5.14,.43-.53-.12-1.85-.56-2.85-4.62,14.39-12.05,27.46-17.74,41.3h-14.94c-9.45,0-18.9,0-28.35,.01-1.18,0-1.76-.22-1.94-1.64-.14-1.13-1.13-2.13-1.64-3.24-1.98-4.32-3.92-8.66-6.01-13.3-1.28,1.61-2.3,3.01-3.44,4.29-2.06,2.45-4.26,4.78-6.57,6.99-1.89,1.65-3.98,3.06-6.22,4.18-3.57,1.83-6.99,1.65-10.45-1.35-3.19-2.82-5.88-6.14-7.98-9.84-2.85-5.08-4.77-10.62-5.67-16.37-.71-3.91-1.38-7.83-2.1-11.73-1.47-7.9-2.83-15.82-4.51-23.67-.83-3.09-1.86-6.12-3.1-9.07-.33-1.2-1.5-1.96-2.73-1.76-3.08,.28-6.17,.55-9.26,.78-2.99,.23-6,.35-8.98,.67-4.59,.49-8.57-1.11-12.51-3.19-2.66-1.37-5.59-2.16-8.58-2.32-.65-.04-1.68-.57-1.83-1.08-.78-2.58-1.38-5.2-1.82-7.86-.58-3.82,2.78-5.11,5.59-5.05,1.33,.03,2.65,.19,4.22,.32-.48-.8-1.03-1.56-1.64-2.26-3.66-3.4-4.96-7.98-6.48-12.49-.66-2.25-1.99-4.24-3.82-5.7-.52-.48-.8-1.17-.75-1.88,.1-.59,.83-1.49,1.31-1.51,2.21-.09,4.44,.06,6.66,.17,.43,.08,.86,.19,1.27,.33,5.7,1.18,10.56,4.87,13.24,10.04,.56,1.01,1.15,2,1.83,3.18,.47-.95,1.06-1.84,1.76-2.64,1.55-1.24,3.16-2.41,4.83-3.48,1.66-1.14,3.43-2.14,5.02-3.36,.71-.52,1.18-1.29,1.32-2.15,.12-3.44,1.37-6.74,3.56-9.4,1.16-1.36,1.7-3.16,1.48-4.93-.11-.68-.35-1.33-.44-2-.3-2.08-.72-3.01,1.78-4.12,.39-.16,.76-.37,1.09-.63,2.94-2.42,3.7-1.28,6.81,.48,2.32,1.31,4.52,2.84,6.82,4.19,.76,.49,1.74,.5,2.52,.05,2.7-1.35,4.98,.23,4.88,3.39-.14,1.91,.32,3.82,1.33,5.46,1.45,2.37-.35,6.57-3.72,6.04-1.67-.27-2.35,.89-2.98,2-1.81,3.51-4.42,6.55-7.62,8.86-2.52,1.73-2.98,4.53-3.35,7.62,2.63-1.48,5.64-2.13,8.64-1.89,4.07,.17,7.88,2.03,10.52,5.13,.75,.88,.88,2.32,1.15,3.53,.06,.29-.41,.86-.77,1.05-.58,.38-1.26,.58-1.95,.59-3.41-.48-5.84,1.6-8.51,3.01-.03,.14-.11,.28-.08,.32,2.08,2.06,1.2,5.07,2.41,7.48,1.2,2.39,1.65,5.14,2.76,7.58,2.7,5.93,5.5,11.81,8.42,17.64,2.81,5.59,5.81,11.08,8.73,16.62,.4,.76,.82,1.51,1.48,2.72,1.42-1.36,2.72-2.84,3.87-4.43,.56-.92,.42-2.37,.32-3.56-.24-2.96-.61-5.96,.78-8.7,.9-1.66,2.01-3.2,3.29-4.59,1.47-1.68,3.64-2.93,4.62-4.83,1.13-2.18,1.38-4.85,1.86-7.34,.98-5.02,1.59-10.13,2.85-15.07,.89-3.78,2.98-7.17,5.97-9.65,3.2-2.61,6.84-3,10.74-2.66,2.53,.3,5.07,.45,7.62,.43,2.44-.1,4.89-3.38,3.15-6.16-2.44-3.91-4.51-8.04-6.81-12.19-1.76,1.1-3.38,2.06-4.94,3.09-5.09,3.38-10.56,5.52-16.77,4.89-3.2-.38-5.8-2.77-6.44-5.93-.46-2.17-1.08-2.79-3.31-2.98-2.42-.21-3.54-1.76-2.92-4.68,.09-.38,.21-.76,.35-1.12-1.27-1.36-2.68-2.36-3.38-3.72-1.46-2.84-.93-3.99,1.28-5.12,2.03-1.05,1.96-1.18,.94-3.33-1.39-2.55-.45-5.74,2.1-7.13,.08-.04,.16-.09,.24-.12,1.59-.86,3.22-1.67,4.76-2.62,3.48-2.13,3.66-4.75,2.11-7.87,.11-.7,.13-1.42,.07-2.13-.79-3.79-2.04-7.54-2.4-11.36-.58-5.58,.81-11.19,3.91-15.86,1.81-2.78,3.83-5.46,4.7-8.89,.61-2.05,1.91-3.83,3.68-5.03,2.89-1.87,3.52-4.4,3.82-7.42,.26-2.06,.66-4.1,1.18-6.11,.34-1.45,1.1-1.75,2.3-.94,.93,.62,1.42,.22,1.83-.6,.87-1.73,1.72-3.48,2.63-5.19,1.42-2.71,2.87-5.4,4.32-8.1,.47-.88,.96-1.75,1.46-2.62,.29-.62,1.03-.89,1.65-.6,.33,.15,.58,.45,.67,.8,.93,2.26,1.7,4.59,2.32,6.95,.73,2.87,1.2,5.81,1.76,8.6,1.01-.14,2.03-.19,3.06-.16,1.23,.14,2.19,1.13,2.3,2.36,.23,1.26,.48,2.52,.58,3.8-.04,.72,.5,1.33,1.22,1.38,.06,0,.11,0,.17,0,.93,.05,1.87,.05,2.81,0,5.77-.52,11.58,.52,16.82,3,.93,.46,1.78,1.11,2.69,1.62,.51,.25,1.03,.46,1.56,.64,.31-3.15,.38-6.19,.96-9.13,.63-3.18,1.4-6.39,3.55-9.05,.9-1.12,1.32-2.65,2.27-3.7,2.17-2.38,4.46-4.65,6.84-6.83,2.08-1.9,4.78-2.61,7.47-3.06,3.85-.71,7.8-.58,11.6,.37,4.42,1.18,6.77,3.97,6.77,8.9,0,3.49-.85,6.97-1.34,10.46-.46,3.28-1.18,6.56-.05,9.86,1.06,3.12,2.19,6.23,3.06,9.41,.46,1.51,.57,3.1,.32,4.66-.71,3.96-3.15,7.39-6.66,9.35-4.25,2.5-8.5,2.43-12.99,1.51-2.07-.43-4.13-.97-6.31-1.48,.42,2.23,.85,4.22,1.17,6.24,1.03,5.33,.07,10.85-2.69,15.52-2.29,3.51-4.77,6.88-7.43,10.12-1.76,2.28-3.64,4.47-5.54,6.64-2.84,3.24-5.7,6.46-8.62,9.63-2.2,2.39-3.2,4.04-3.22,5.68,3.15,2.14,6.49,1.54,9.8,.73,2.93-.72,4.78,.71,6.31,2.91,1.47,2.12,1.21,4.25-.01,6.37-.75,1.17-1.41,2.4-1.98,3.67-.22,.97-.31,1.96-.28,2.95,.78-.38,1.52-.86,2.18-1.43,.89-1.08,1.72-1.65,2.92-.49,.81,.94,.76,2.34-.12,3.22-1.4,1.61-3.72,2.07-5.63,1.13-2.2-1.18-2.81-2.9-2.07-5.32,.45-1.5,.8-3.03,1.07-4.58,.16-.88-.35-1.38-1.26-1.35-1.21,.05-2.42,.25-3.62,.17-2.53-.16-5.06-.45-7.59-.7-.24-.02-.48-.11-.72-.14-.08-.01-.18,.07-.38,.15"/>
        </g>
      </g>
    </g>
  </g>
</svg>