<?xml version="1.0" encoding="UTF-8"?>
<svg id="Layer_2" data-name="Layer 2" xmlns="http://www.w3.org/2000/svg" viewBox="0 0 273.05 254.51">
  <defs>
    <style>
      .cls-1 {
        fill: #fbefdb;
      }

      .cls-2 {
        fill: #a0bddd;
      }
    </style>
  </defs>
  <g id="Layer_1-2" data-name="Layer 1">
    <g>
      <path class="cls-2" d="M273.05,254.51V0H0V254.51H273.05ZM39.78,210.02c10.09-8.7,20.22-17.35,30.37-25.98,1.55-1.32,3-2.74,4.56-4.02,1.19-.95,1.79-2.46,1.58-3.96-.29-7.75-.83-15.47-1.54-23.19-.25-3.01-.31-6.04-.19-9.06,.13-4.33,1.47-5.72,5.79-6.51,2.48-.31,4.98-.41,7.48-.3,2.35-.03,2.67-.25,2.6-2.6-.16-5.55,.75-10.99,1.56-16.45,.4-1.67-.33-3.41-1.81-4.29-4.14-2.94-7.72-6.58-10.59-10.76-1.02-1.55-2.85-1.8-4.3-2.62-5.55-3.12-9.07-7.63-10.1-13.95-.12-1.31-.58-2.57-1.32-3.66-1.2-1.64-2.14-3.46-2.78-5.39-.66-1.84,.35-4.03,2.28-4.08,5.05-.15,10.12-.48,15.12,.75,.89,.22,1.8,.36,2.72,.43,6.6,.51,12.92,2.3,19.23,4.13,1.53,.54,3.23,.05,4.23-1.22,4.91-5.27,9.35-10.97,13.26-17.02,1.38-2.09,2.06-4.57,1.93-7.08-.29-5.75,1.06-11.08,6.1-14.54,2.73-2.02,6.21-2.71,9.5-1.88,9.84,2.46,17.12,8.7,23.56,15.97,3.69,4.17,6.73,8.9,6.55,14.96-.18,6.15-4.39,10.64-10.55,10.95-.52,.07-1.05,.08-1.58,.01-4.47-.97-7.92,1.01-11.03,3.83-3.56,3.22-7.04,6.52-10.53,9.8-.44,.39-.82,.85-1.12,1.36-.56,1.05-.31,1.79,1,1.9,1.7,.14,3.41,.3,5.11,.4,3.35,.25,6.59,1.26,9.49,2.96,5.81,3.21,5.82,10.5,1.91,15.13-3.01,3.57-7.18,4.02-11.46,4.14-1.48,.04-3.31-.82-4.36,.34-1.08,1.18,.47,2.66,.59,4.07,.09,1.24,.34,2.47,.75,3.65,.56,1.51,1.67,1.79,2.89,.76,6.12-5.15,12.23-10.33,18.32-15.53,4.7-3.99,9.38-7.99,14.1-11.96,1.02-.81,1.34-2.21,.79-3.39-2.41-6.8-1.13-13.19,1.61-19.66,2.99-6.89,7.92-12.77,14.18-16.92,8.18-5.7,17.33-8.01,27.09-5.76,5.56,1.14,10.33,4.69,13.02,9.69,2.55,4.73,3.92,9.62,2.99,14.92-1.3,8.03-5.2,15.42-11.1,21.02-3.75,3.69-8.14,6.67-12.95,8.78-6.16,2.61-12.96,3.3-19.52,1.99-1.86-.44-3.65-1.1-5.35-1.97-.83-.56-1.93-.5-2.68,.16-2.58,2.13-5.24,4.17-7.8,6.32-.87,.73-.81,1.9-.81,2.95,0,2.8-1.13,4.73-3.92,5.66-1.28,.42-2.45,1.18-3.72,1.71-1.58,.66-.86,2.21-.42,3.29,.93,2.53,1.4,5.21,1.36,7.91,.06,2.61-.7,3.57-3.13,4.63-3.52,1.46-7.16,2.61-10.87,3.43-.92,.22-2.14,.09-2.4,1.34-.27,1.26,.2,2.56,1.21,3.36,.67,.63,1.42,1.18,2.23,1.62,6.81,3.41,13.11,7.76,18.72,12.92,5.88,5.15,10.63,11.45,13.96,18.53,3.15,6.73,3.32,13.81,3.64,20.94,.13,5.13-.09,10.25-.67,15.35-.29,3.1,.29,3.44,2.79,4.03,3.54,.85,7.24,.7,10.69-.44,3.93-1.28,6.49-4.36,7.79-8.29,3.3-9.98,1.97-20.11,.9-30.24-.82-7.7-2.44-15.29-2.91-23.03-.67-10.98,4.24-18.71,13.78-23.78,5.03-2.89,11.1-3.33,16.49-1.18,3.98,1.57,6.69,4.76,8.91,8.32,1.62,2.55,2.44,5.5,2.39,8.47v.12c-.02,.99-.14,1.98-.36,2.96-.82,3.87-2.66,7.25-6.32,9.28-.5,.31-1.06,.53-1.63,.65-.9,.15-1.92,.28-2.48-.69-.54-.87-.43-2,.27-2.75,1.67-2.26,2.84-4.85,3.41-7.6,.98-3.7-1.86-8.02-4.38-9.82-3.79-2.7-7.95-2.74-12.07-1.48-3.04,1.02-5.51,3.27-6.8,6.21-2.77,5.73-3.91,11.56-2.5,18.1,1.16,5.34,1.88,10.85,2.62,16.31,1.2,8.12,1.69,16.33,1.47,24.54-.26,6.71-1.51,13.21-5.39,18.84-2.88,4.29-7.66,6.91-12.82,7.06-6.1,.32-12.22,.25-18.33,.19-5.84-.06-11.69,.04-17.53,.05-4.14,.01-8.27,0-12.41,0v-.12h0c-9.33,0-18.65-.02-27.97,0-6.24,.02-12.48,.15-18.72,.16-1.72,0-3.91,.44-4.7-1.6-.68-1.76,.57-3.34,1.59-4.82,.92-1.4,2.52-2.2,4.19-2.1,2.1,0,4.21-.16,6.31-.23,1.47-.05,2.29-.18,1.02-1.92-1.59-2-3.03-4.11-4.31-6.32-2.61-4.87-4.15-10.24-4.54-15.76-.52-5.04-.3-10.13,.67-15.11,.48-2.15-.99-4.15-1.68-6.17-.34-.97-.87-1.88-1.16-2.9-.5-1.77-1.58-2.24-3.09-1.14-1.74,1.27-3.33,2.77-4.98,4.17-5.4,4.58-10.81,9.15-16.18,13.76-9.26,7.93-18.51,15.88-27.75,23.84-.2,.17-.38,.36-.59,.53-4.33,3.51-8.83,2.04-10.39-3.39-.62-2.17,.5-3.75,1.97-5.01Z"/>
      <path class="cls-2" d="M106.78,96.2c2.95,0,4.78-1.75,4.77-4.57,.08-2.56-1.92-4.7-4.48-4.79-2.62-.04-5.12,2.29-5.05,4.72,.2,2.52,2.24,4.51,4.77,4.64Z"/>
      <path class="cls-2" d="M90.82,165.42c2.39-.37,4.83-2.78,4.79-5.1h0c-.18-.91-.52-2.18-.66-3.48-.36-3.42-2.62-4.7-5.65-5.23-2.01-.35-2.5-.04-2.58,2.02-.1,2.68-.02,5.37-.14,8.05-.2,4.44-.24,4.44,4.23,3.74Z"/>
      <path class="cls-1" d="M48.2,218.42c.2-.17,.39-.36,.59-.53,9.24-7.96,18.49-15.91,27.75-23.84,5.38-4.61,10.78-9.17,16.18-13.76,1.65-1.4,3.23-2.9,4.98-4.17,1.5-1.09,2.59-.63,3.09,1.14,.29,1.02,.82,1.93,1.16,2.9,.7,2.02,2.17,4.02,1.68,6.17-.96,4.98-1.19,10.07-.67,15.11,.39,5.51,1.93,10.88,4.54,15.76,1.28,2.21,2.72,4.32,4.31,6.32,1.28,1.74,.45,1.87-1.02,1.92-2.1,.07-4.21,.22-6.31,.23-1.67-.1-3.27,.7-4.19,2.1-1.03,1.49-2.27,3.06-1.59,4.82,.79,2.04,2.98,1.6,4.7,1.6,6.24-.01,12.48-.14,18.72-.16,9.32-.03,18.65,0,27.97,0h0v.12c4.14,0,8.27,.01,12.41,0,5.84-.02,11.69-.11,17.53-.05,6.11,.06,12.23,.14,18.33-.19,5.16-.15,9.94-2.77,12.82-7.06,3.88-5.63,5.13-12.12,5.39-18.84,.22-8.21-.27-16.42-1.47-24.54-.74-5.46-1.46-10.97-2.62-16.31-1.41-6.54-.27-12.37,2.5-18.1,1.29-2.93,3.76-5.19,6.8-6.21,4.12-1.25,8.28-1.22,12.07,1.48,2.53,1.8,5.37,6.12,4.38,9.82-.58,2.75-1.74,5.34-3.41,7.6-.7,.75-.81,1.88-.27,2.75,.56,.97,1.58,.84,2.48,.69,.58-.12,1.13-.34,1.63-.65,3.66-2.03,5.5-5.41,6.32-9.28,.22-.98,.34-1.97,.36-2.96v-.12c.05-2.97-.77-5.92-2.39-8.47-2.22-3.56-4.93-6.75-8.91-8.32-5.39-2.15-11.46-1.71-16.49,1.18-9.53,5.07-14.45,12.8-13.78,23.78,.47,7.74,2.1,15.33,2.91,23.03,1.07,10.12,2.4,20.26-.9,30.24-1.3,3.93-3.86,7.01-7.79,8.29-3.45,1.14-7.16,1.29-10.69,.44-2.51-.59-3.09-.93-2.79-4.03,.58-5.09,.8-10.22,.67-15.35-.32-7.12-.49-14.21-3.64-20.94-3.33-7.07-8.08-13.38-13.96-18.53-5.61-5.16-11.9-9.51-18.72-12.92-.81-.44-1.56-.99-2.23-1.62-1.01-.8-1.48-2.1-1.21-3.36,.26-1.24,1.48-1.11,2.4-1.34,3.72-.82,7.36-1.97,10.87-3.43,2.43-1.07,3.19-2.02,3.13-4.63,.03-2.7-.43-5.38-1.36-7.91-.44-1.08-1.15-2.63,.42-3.29,1.27-.53,2.44-1.29,3.72-1.71,2.8-.92,3.92-2.86,3.92-5.66,0-1.05-.06-2.22,.81-2.95,2.56-2.15,5.22-4.19,7.8-6.32,.76-.66,1.86-.72,2.68-.16,1.69,.87,3.49,1.54,5.35,1.97,6.56,1.31,13.36,.62,19.52-1.99,4.82-2.11,9.21-5.09,12.95-8.78,5.9-5.6,9.8-12.99,11.1-21.02,.93-5.29-.44-10.19-2.99-14.92-2.69-5-7.46-8.55-13.02-9.69-9.76-2.25-18.91,.06-27.09,5.76-6.26,4.15-11.19,10.03-14.18,16.92-2.74,6.47-4.01,12.85-1.61,19.66,.56,1.18,.23,2.58-.79,3.39-4.72,3.96-9.4,7.97-14.1,11.96-6.09,5.2-12.19,10.38-18.32,15.53-1.22,1.03-2.33,.75-2.89-.76-.41-1.18-.66-2.41-.75-3.65-.12-1.41-1.67-2.89-.59-4.07,1.05-1.16,2.88-.3,4.36-.34,4.28-.12,8.45-.57,11.46-4.14,3.9-4.63,3.9-11.92-1.91-15.13-2.9-1.7-6.14-2.71-9.49-2.96-1.71-.1-3.41-.25-5.11-.4-1.31-.11-1.56-.85-1-1.9,.3-.51,.68-.97,1.12-1.36,3.5-3.28,6.98-6.58,10.53-9.8,3.11-2.82,6.56-4.8,11.03-3.83,.52,.06,1.05,.06,1.58-.01,6.16-.31,10.38-4.8,10.55-10.95,.18-6.06-2.86-10.79-6.55-14.96-6.44-7.27-13.72-13.51-23.56-15.97-3.29-.83-6.77-.14-9.5,1.88-5.04,3.46-6.39,8.78-6.1,14.54,.13,2.51-.55,4.99-1.93,7.08-3.91,6.05-8.35,11.75-13.26,17.02-1,1.27-2.71,1.76-4.23,1.22-6.31-1.83-12.63-3.62-19.23-4.13-.92-.07-1.83-.21-2.72-.43-4.99-1.23-10.07-.89-15.12-.75-1.93,.06-2.93,2.24-2.28,4.08,.64,1.93,1.57,3.75,2.78,5.39,.74,1.09,1.19,2.35,1.32,3.66,1.03,6.32,4.55,10.83,10.1,13.95,1.45,.82,3.28,1.07,4.3,2.62,2.87,4.18,6.46,7.82,10.59,10.76,1.48,.88,2.22,2.61,1.81,4.29-.81,5.45-1.71,10.9-1.56,16.45,.07,2.35-.25,2.57-2.6,2.6-2.5-.11-5-.01-7.48,.3-4.32,.8-5.67,2.19-5.79,6.51-.12,3.02-.05,6.05,.19,9.06,.72,7.72,1.26,15.44,1.54,23.19,.2,1.51-.4,3.01-1.58,3.96-1.56,1.28-3.02,2.71-4.56,4.02-10.15,8.62-20.28,17.28-30.37,25.98-1.47,1.26-2.6,2.84-1.97,5.01,1.56,5.43,6.07,6.9,10.39,3.39ZM107.07,86.84c2.56,.09,4.56,2.24,4.48,4.79,.01,2.82-1.82,4.57-4.77,4.57-2.53-.13-4.57-2.12-4.77-4.64-.06-2.44,2.43-4.77,5.05-4.72Zm-20.49,74.84c.12-2.68,.04-5.37,.14-8.05,.08-2.06,.57-2.37,2.58-2.02,3.03,.53,5.29,1.8,5.65,5.23,.14,1.3,.48,2.57,.66,3.48h0c.04,2.32-2.4,4.73-4.79,5.1-4.48,.7-4.43,.7-4.23-3.74Z"/>
    </g>
  </g>
</svg>