<?xml version="1.0" encoding="UTF-8"?>
<svg id="Layer_2" data-name="Layer 2" xmlns="http://www.w3.org/2000/svg" xmlns:xlink="http://www.w3.org/1999/xlink" viewBox="0 0 273.05 255.51">
  <defs>
    <style>
      .cls-1 {
        fill: none;
      }

      .cls-2 {
        clip-path: url(#clippath);
      }

      .cls-3 {
        fill: #fbefdb;
      }

      .cls-4 {
        fill: #de5052;
      }
    </style>
    <clipPath id="clippath">
      <rect class="cls-1" x="28" y="39.65" width="202.68" height="215.86"/>
    </clipPath>
  </defs>
  <g id="Layer_1-2" data-name="Layer 1">
    <path id="Path_44" data-name="Path 44" class="cls-4" d="M273.05,254.51H0V0H273.05V254.51Z"/>
    <g id="Group_39" data-name="Group 39">
      <g class="cls-2">
        <g id="Group_38" data-name="Group 38">
          <path id="Path_142" data-name="Path 142" class="cls-3" d="M83.13,110.74s.03-.05,.05-.08c-.03,.01-.06,.03-.09,.04l.04,.04Z"/>
          <path id="Path_143" data-name="Path 143" class="cls-3" d="M28.18,147.89l-.18,.19c.19,0,.38,0,.57-.01l-.4-.17"/>
          <path id="Path_146" data-name="Path 146" class="cls-3" d="M32.85,150.49l-1.52,.42,1.21,1.35-.16,.15-1.65-.75,1.69,3.92-.83-.29c-.2,.55-.34,1.11-.44,1.68-.06,.42,.05,.85,.3,1.19,.86,.85,.69,1.21-.44,1.44-.34,.07-.62,.44-.9,.66,1.05,.72,2.14,1.27,1.32,2.7l1.26,1.13c-1.89,.85-2.11,2.44-.78,5.17-1.46,1.44-1.37,1.92,.53,3.38-.41,1.33-.81,2.59-1.2,3.85,1.59,.77,2,2.41,.72,3.66l2.04,.82c-.7,1.59-1.41,3.17-2.09,4.76-.43,1,.15,1.35,1.02,1.4,.4-.02,.8-.09,1.18-.2l.22,.43-1.62,1c1.07,.39,2.12,.85,3.13,1.38,.85,.57,1.65,1.22,2.38,1.94,.03,.02-.17,.25-.18,.39-.06,.77-.09,1.54-.13,2.31-.07,1.28,1.64,1.19,1.6,2.45l-1.09,1.31c.75-.1,1.27-.19,1.81-.24,1.32-.13,1.57,.29,.84,1.42l.56,.15-.55,1.62,2.6-.71,.08,.27-1.35,.79,.35,.2-.98,1.87,2.39-.96-3.76,4.61,1.59-.68,.62,2.25,2.24-1.41-.44,2.69,2.58-.8c-1.01,1.51-1.34,2.55,.06,3.34,.57,.32,1.09,.73,1.54,1.2,.52,.54,.76,1.41,1.87,.95,.21-.09,.76,.63,1.25,1.05l1.23-.58c1.25,1.26-.41,1.89-.49,2.83,1.44-.59,4.1,.04,4.63,1.09l1.95-1.16c0,2.45,1.49,.78,2.37,1.17,.08,.32,.18,.76,.28,1.2l4.35-.26-.32,.46,1.22,1.74,1.69,.32-2.6,2.08,4.47-1.28v2.49l2.77-1.15,.74,1.66-1.17,1.73,.15,.09,1.44-1.25,.22,.21-.71,2.05,1.34-.2c.06,.57,.11,1.07,.18,1.76l3.09-1.57,1.18,2.96c.08-.98,.13-1.46,.17-1.96l.45-.2,2.6,3.89c.24-1.04,.41-1.81,.65-2.9l1.49,3.15,.54-2.35,.43-.03,1.04,2.2c.16-1.11,.31-2.07,.51-3.41,.98,1.29,1.63,2.15,2.37,3.12,.17-1.09,.32-2.03,.47-2.96l.45-.02,.95,2.93c1.01-1.94,.58,.48,1.08,.25l.52-1.2,1.91,1.24c.24-.76,.58-1.49,1.01-2.16,.37-.44,1.4-.77,1.38,.26-.03,1.13,.88,1.25,1.31,1.86l1.29-.94c1.08,.09,2.25-.16,2.59,.26,1.46,1.8,2.69,.8,4.02-.01,.36-.11,.73-.17,1.1-.18-.48,.76-1.02,1.48-1.62,2.15-.75,.68-.73,1.23,.04,1.79,.46,.34,.98,.61,1.48,.91l-1.44,3.25,.84-.14c.67,2.34-.49,3.96-1.88,5.26l1.36,1.16c-.73,.63-1.12,1.56-1.06,2.52-.17,.72-.47,1.41-.87,2.04-.37,1.22-.81,2.41-1.32,3.57h41.66s.02-.05,.03-.09c.8-3.16,3.24-5.7,3.39-9.1,0-.1,.14-.21,.1-.15l1.31,.71,.08-.14,1.98,1.71,.3-.3-.44-1.04c.37-.49,.61-.85,.89-1.16,.28-.39,.64-.71,1.05-.96,1.33-.56,2.69-1.02,4.05-1.51,.52-.19,1.06-.37,1.66-.57l.49,.55c.18-.41,.32-.73,.4-.92l2.63,1c0,2.58-.04,5.24,.01,7.9,.03,1.36,.06,2.72,.11,4.08h36.16c.43-1.01,.92-1.99,1.46-2.94,.58-1.02,1.51-1.81,1.13-3.23-.01-.64,.24-1.25,.71-1.69,1.3-1.37,.74-3.5,2.16-4.87,.63-.85,1.13-1.79,1.49-2.79,.48-.92,.98-1.83,1.54-2.87l2.36,.55c-.41-.81-.71-1.3-.92-1.83-.24-.58-.4-1.19-.62-1.87h.95c.03-3.35,.3-3.92,2.21-4.13l-1.5-3.52,2.91,1.46c-1.02-2.13-2.13-3.86-1.64-5.92l1.73-.57c.21-1.52,.39-2.76,.56-4l.32,.07,1.28-3.42-1.99-1.54,.32-.37,1.76-.16-1.56-2.15,2.44,.38-1.97-2.87c3.04,.17,1.48-3.33,3.56-3.85-1.45-2.13-1.68-4.67-.49-5.84-.79-1.23-1.6-2.49-2.39-3.71l2.06-1.36-1.09-1.87,1.43,.08-1.55-1.19c2.33-.4,4.32-3.92,3.12-5.65-1.37-1.97-.27-2.67,.97-3.72,1.09-.92,2.46-1.84,2.94-3.06,.9-2.35,1.5-4.8,1.79-7.29,.24-1.97,1.91-3.43,1.64-5.48,0-.07,.1-.19,.19-.24,2.13-1.29,2.29-3.37,2.21-5.55,.01-.17,.04-.35,.09-.51l.95,.12c0-.34-.11-.7,.02-.95,.72-1.45,1.23-2.86-.07-4.28-.08-.09,.26-.57,.25-.54-.34-1.19-.54-2.17-.88-3.1-.71-2.38-1.85-4.6-3.36-6.57-1.52-1.78-2.57-4.12-5.38-4.31-.18-.01-.34-.32-.52-.49-.85-.9-1.78-1.72-2.78-2.44-1.47-.89-3.11-1.5-4.66-2.25-.1-.05-.12-.23-.21-.33-1.03-1.18-2.37-2.19-3.87-2.03-2.38,.26-4.44-.01-6.23-1.69-.35-.24-.73-.45-1.12-.63-1.7-1.07-4.07-.44-5.48-2.5-.72-1.05-2.24-1.62-3.48-2.22-2.46-1.19-2.62-1.32-2.05-3.9,.1-.44,.81-.71,1.16-1.13,.96-1.15,1.94-2.3,2.81-3.53,1.36-1.71,2.54-3.54,3.53-5.49,.61-1.4,.4-3.14,.6-4.73,.08-.33,.2-.64,.36-.94-.03-.58-.29-1.3-.05-1.78,.26-.53,.98-.85,1.4-1.18l-1.32-.25c-.2-.9-.38-1.75-.6-2.74h9.13c-2.55-.21-5.11-.28-7.66-.23-1.23,.07-2.29-.87-2.36-2.11-.02-.36,.05-.72,.19-1.05-.85,.17-1.4,.21-1.27-1.04,.15-1.5,.11-3.01-.13-4.5-.34-2.14-.45-2.11,1.74-2.06,1.98,.04,3.97,.05,5.71-1.14q-1.03-2.53-2.75-1.89c-1.54-1.63,1.26-2.25,1.02-3.1-.78-.62-1.62-1.12-1.56-1.26,1.38-3.37-.25-6.27-1.36-9.46-.57,1-1.2,1.96-1.88,2.88-.23,.28-.9,.19-1.4,.28,.16-1.17,.65-2.24,.31-2.77-.88-1.38-.29-2.44,.38-3.63h-1.5c-.14-1.82,1.08-3.33,.6-5.13-.47-1.74-.55-3.57-.9-5.35-.13-.66-.76-1.26-.79-1.91,.04-1.11,.15-2.21,.34-3.3,.15-1.27,.23-2.55,.24-3.83-.04-.7-.22-1.38-.52-2.01-.48-1.12-2.07-1.88-1.07-3.49-.2-.35-.51-.61-.88-.76-.46,.04-.9,.17-1.31,.38q-.49-2.06-2.73-1.94c-.48,.02-.96,0-1.45-.01-2.57-.04-5.08,.15-7.29,1.72-1.2,.86-2.51,1.57-3.75,2.39-.41,.33-.8,.68-1.16,1.06-1.14,1-2.26,2.02-3.44,2.97-.53,.36-1.07,.68-1.64,.96-1.99,1.21-3.97,2.43-5.95,3.65-.62,.32-1.2,.7-1.73,1.16-.8,.82-1.52,.91-2.32,.09-.35-.36-.65-.78-1.27-1.52l.94,2.61-4.14-2.01c-.23,2.32-2.59,3.86-4.88,3.75-1.27,.05-2.52,.21-3.76,.48-.44,.1-.89,.12-1.34,.06-1.43-.4-2.84-.89-4.37-1.38,.09,.75,.16,1.34,.27,2.21l-6.01-2.83,.95,2.7c-.79-.25-1.61-.36-2.43-.35-3.31,.76-3.42,.74-4.51-2.26-.12-.33-.29-.64-.5-1.1l-1.18,1.8c-1.7-1.26-1.71,.76-2.64,1.37-.47-.41-.91-.85-1.41-1.22-.34-.23-.7-.41-1.09-.53-1.25-.46-2.54-.82-3.75-1.36-1.79-.8-3.51-1.75-5.28-2.61-1.13-.55-2.28-1.08-3.45-1.53-.53-.16-1.08-.25-1.63-.27-1.37-.14-2.96,.16-4.06-.45-2.55-1.43-5.18-.06-7.72-.69-1.98-.49-3.73,1.61-5.88,.95-.16-.05-.46,.35-.69,.54l1.5,2.01h-1.97c.9,1.32,.43,2.2-.55,2.97-1.31,1.03-1.34,1.72-.21,2.93,.4,.33,.7,.77,.87,1.26,.19,1.33,.12,2.7,.32,4.03,.21,1.04,.51,2.06,.88,3.05,.16,.43,.35,.85,.56,1.26l-1.4,.4c.1,.23,.35,.56,.27,.7-.96,1.69,.39,2.7,1.07,3.92,.15,.37,.26,.77,.32,1.17,.35,1.41,.71,2.82,1.06,4.25l-.7,.12c.47,.38,.82,.62,1.14,.9,.74,.65,1.94,1.13,.14,2.13-.72,.4-1.32,1.52,.17,2.29,.63,.33,.98,1.19,1.46,1.8l-.47,.38c-1.97-.72-3.44-2.41-3.86-4.47,.02,1.81-.11,3.62-.37,5.41-.5,2.31,.43,4,1.75,5.64,.54,.67,1.1,1.31,1.64,1.98,.13,.2,.24,.41,.34,.63l-1.11,.28,.21,.75-.29,.27-3.31-2.32-.48,.25c.21,.65,.43,1.3,.65,1.97l-1.1-.16c1.14,.98,.26,3.04,2.29,3.28l-2.75-.51c1.6,1.16,3.4,.79,5.16,.7,.45-.09,.92-.07,1.36,.04,1.13,.53,2.21,1.17,3.4,1.82l-.43,1.44h1.22l.24,.42c-.46,.3-.89,.77-1.39,.86-1.05,.18-2.12,.27-3.19,.25-4.01-.02-8.03,.13-12.02-.22-2.49-.22-4.9-1.23-7.64-1.96,1.19,.51,2.09,.98,3.04,1.3,4.3,1.36,8.83,1.82,13.32,1.34,1.92-.17,3.84-.34,5.77-.38,.39,0,.79,.57,1.19,.88-.87,.79-.11,1.51,.17,2.18-.78,.97-2.02,1.45-3.25,1.25-2.08-.17-4.18-.18-6.26-.02-1.74,.13-3.56,.38-4.58,2.14,4-2.17,8.28-1.83,12.83-1.54-.33,1.07-.61,1.95-.85,2.73l-3.8,2.87,.25,.33,3.57-2.75c.31,.94,.52,1.63,.75,2.31,.54,1.57,.99,3.19,1.68,4.7,.74,1.62,1.73,3,3.75,3.37,2.16,.4,4.02,2.75,6.47,.71,.28,.53,.47,.91,.68,1.27,1.09,1.88,1.03,2.25-.97,3.11-1.71,.73-3.5,1.26-5.32,1.9l.43,.7-8.38,3.88,.54,.76-9.65,5.49-1.58-3.17-1.58,.75c.04-.84,.07-1.41,.1-1.97l-1.46-.1c.08-.54,.15-.98,.22-1.44l-1.38,.63-.39-.34,1.83-3.38-1.22,.87c-.86-1.95,.93-2.49,1.66-3.69-1.49,.83-2.3,1.83-2.22,3.5,.18,1.09-.52,2.13-1.6,2.36v-1.28c-1.38,.28-2.37-.87-2.42-2.77l-2.52,1.93c.05-.47,.09-.92,.11-1.07l-2.55-.61-.77,1.12-1.07-1.63,.46-1.01-1.73,.15,.26-1.76-.31-.04c-.19,1.27-.38,2.54-.61,4.1-.49-.53-.91-1.1-1.27-1.72-.82-2.05-1.61-2.28-3.28-.85l-.28-.62-.5,1.04-.22-.03v-2.9l-.28-.06-1.33,2.77-1.56-1.66,.17,2.24c-.6,.2-1.47,.23-1.66,.61-.66,1.31-1.11,.24-1.61,0l-.49,.85-1.91-2.53v3.27l-3.57-1.42,.4,1.53-.63-.34h0c-.58,.95-1.24,1.85-1.98,2.69-.75,.74-1.68,.62-2.54-.57l-1.39,3.52s-.21-.4-.4-.76l-.31,.26c.05,.39,.11,.77,.17,1.24l-.99-.13c-.15,.68-.1,1.56-.51,1.93s-1.27,.21-1.91,.28l.84,1.25-1.83,.37,.87,2.54-3.07-.93,.3,.98-1.88-1.01c2.53,2.47-.51,2.52-1.49,3.41l3.49,1.67c-.98,1.17-2.72,1.33-3.9,.35,0,0-.02-.02-.03-.02-.47-.36-1.01-.62-1.58-.78-.55-.08-1.12-.09-1.67-.05l4.39,1.9-.12,.52m89.74,75.56c.69-1.14,1.59-2.13,2.65-2.93,2.29-1.87,4.69-3.6,7.03-5.41,.21-.16,.23-.56,.36-.83,.37-.74,.75-1.48,1.13-2.22,.12-.24,.38-.48,.36-.7-.37-3.75,2.24-6.58,3.06-9.97,1.27-5.24,2.89-10.39,4.15-15.62,.55-2.27-.31-3.3-2.52-4.01-1.86-.59-2.16-1.2-1.42-2.92,1.68-3.88,3.37-7.75,5.06-11.62,.12-.28,.36-.73,.26-.85-1.16-1.36-.13-2.37,.47-3.46s.79-2.11-.65-2.73c-1.04-.45-1.66-1.88-3.12-1.38-1.18-1.57-3.14-1.97-4.58-3.13-.56-.64-.97-1.41-1.18-2.24-.97-2.43-1.85-4.9-2.84-7.32-1.18-2.88-.75-4.67,1.84-6.35,3.59-2.33,7.21-4.62,10.89-6.81,1.62-.84,3.29-1.58,5-2.23-1.93-.15-3.49-.16-5-.42-1.36-.24-3.04-.37-3.92-1.23-2.83-2.76-4.53-6.47-1.69-10.28,1.82-2.44,3.06-5.27,3.61-8.27,.37-1.62,.94-3.18,1.7-4.66,2.58-5.42,7.42-7.69,13.29-6.39,1.19,.26,2.44,.24,3.62,.55,.98,.22,1.89,.64,2.7,1.24,.83,.68,1.51,1.52,2,2.48,1.47,2.83,2.75,5.75,4.22,8.58,.48,.82,1.12,1.55,1.87,2.14,2.65,2.25,3.04,5.14,2.49,8.31-.05,.32-.17,.62-.36,.88-2.11,2.63-4.4,5-8.1,5.11-.21,.03-.42,.09-.61,.19-.24,.1-.47,.22-1.15,.54,2.17,.74,3.96,1.35,5.76,1.96,.52,.11,1.03,.28,1.51,.52,4.01,2.74,8.04,5.43,11.95,8.31,1.73,1.28,2.16,3.07,1.37,5.28-.95,2.66-1.48,5.46-2.28,8.18-.36,1.23-.87,2.44-2.41,2.73-.26,.05-.49,.39-.68,.64-.54,1.02-1.55,1.72-2.7,1.86-2.19,.27-3.69,3.7-2.87,5.84,.43,1.11,.92,2.17,.06,3.34-.19,.26-.04,.83,.06,1.22,.79,3.11,1.41,6.28,2.49,9.29,1.02,2.87,.21,3.96-2.55,5.67-.75,.33-1.22,1.08-1.19,1.89-.2,4.6-.54,9.18,.34,13.77,.59,3.04,.84,6.14,1.37,9.18,.26,1.06,.62,2.09,1.06,3.09,1.19,.68,2.28,1.23,3.3,1.9,1.95,1.28,3.8,2.72,5.81,3.91,1.67,.91,2.75,2.62,2.87,4.52-.01,.47-.18,.93-.48,1.3-1.04,1.62-2.85,2.58-4.77,2.55-2.76-.15-5.51-.6-8.25-.99-1.85-.26-3.67-.69-5.52-.96-1.83-.27-2.09-.66-2.06-2.51,.02-1.4-.35-2.81-.4-4.22-.04-1.15,.27-2.32,.15-3.45-.11-.99-.45-1.95-1-2.78-4.09-5.83-4.73-12.5-4.84-19.32-.03-1.98,0-3.96,0-6.12h-4.99c-.94,2.83-1.93,5.76-2.89,8.69-.24,.6-.39,1.23-.44,1.87-.08,4.82-2.34,8.82-4.66,12.82-.72,1.24-1.39,2.52-2.05,3.79-.48,.92-1.5,1.35-1.71,2.61-.51,3.04-1.39,6.03-1.98,9.06-.18,.93-.31,1.55-1.33,1.88-1.93,.62-3.78,1.46-5.71,2.09-3.12,1.01-6.13,.31-9.08-.79-2.6-.97-3.19-2.21-1.87-4.66"/>
        </g>
      </g>
    </g>
  </g>
</svg>