<svg xmlns="http://www.w3.org/2000/svg" xmlns:xlink="http://www.w3.org/1999/xlink" width="1115" height="635.441" viewBox="0 0 1115 635.441">
  <defs>
    <clipPath id="clip-path">
      <rect id="Rectangle_21" data-name="Rectangle 21" width="933" height="563.441" fill="#702113"/>
    </clipPath>
  </defs>
  <g id="Group_204" data-name="Group 204" transform="translate(-250.5 -888.5)">
    <g id="Group_5" data-name="Group 5" transform="translate(432.5 960.5)">
      <g id="Group_4" data-name="Group 4" clip-path="url(#clip-path)">
        <path id="Path_9" data-name="Path 9" d="M262.773,191.763c2.785-1.589,5.807-2.877,8.292-4.843,3.033-2.4,5.613-5.371,8.948-7.54,3.141-3.687-3.884-12.1,7.193-13.787-.8,4.184-1.424,7.489-2.469,12.974,9.448-.721,17.89-1.229,26.281-2.189.987-.112,1.666-2.725,2.527-4.155,2.033-3.38,4.09-6.745,6.68-11.01.237.161-1.3-.877-5.022-3.4l19.372-4.881q-.19-1.5-.381-3c-3.39.4-6.792,1.2-10.166,1.088-3.553-.116-9.455-.175-10.12-1.89-1.4-3.6-.84-8.543.437-12.434,1.133-3.455,4.325-6.235,7.522-10.543-3.19-.618-6.32-1.7-6.591-1.205-4.16,7.552-8.114,15.235-11.6,23.114-.416.94,2.178,3.213,3.481,5.011-3.739,6.934-7.433,13.782-12.2,22.621-2.94-8.1-4.874-13.43-6.224-17.147l-13.657,1.614c-.228-5.977-2.953-15.4-.266-17.348,13.464-9.745,17.62-25.766,27.9-37.225,4.422-4.926,12.069-7.027,18.4-10.1,1.018-.493,2.922.428,4.249,1.052,8.122,3.82,16.357,7.451,24.2,11.8,2.675,1.484,4.307,4.852,6.414,7.361-3.157,1.019-6.258,2.395-9.5,2.922-1.838.3-3.9-.786-6.22-1.332.8,3.385.667,6.878,2.335,8.823a16.035,16.035,0,0,0,8.7,5.026c1.281.233,3.414-3.723,5.026-5.874,2.031-2.707,3.929-5.516,7.881-7.352q-.981-5.536-1.964-11.071l1.366-.8c1.8,2.452,3.593,4.9,4.473,6.108L399.2,98.757c.036.41-.13-1.451-.394-4.419L418.659,99.8c-6.909-6.98-9-15.033-6.918-24.177.39-1.706,2.033-3.125,3.1-4.677,1.583,1.343,3.642,2.4,4.663,4.081,3.273,5.4,6.163,11.033,9.2,16.576.548,6.331,1.1,12.66,1.675,19.343,6.824-10.314,6.49-13.27-1.86-19.182-1.8-6.2-3.605-12.4-5.225-17.973,7.363-1.092,12.578-1.865,18.477-2.738-1.771-2.29-3.631-4.7-6.038-7.811l11.942-4.175c-7.59-10.945.107-15.217,7.708-20.3,5.183-3.464,13.466-6.421,8.129-15.9-.081-.146,4.225-3.969,5.639-3.5,2.846.934,5.109,3.645,7.377,5.436,3.589-.488,7.563-2.268,10.408-1.157,5.917,2.313,11.492,5.729,7.406,14.183-2.028,4.191-2.695,9.042-3.645,14.12,8.554-14.9,22.22-9.3,35.017-8.8.345-2.6.638-4.8.92-6.929,6.64-3.51,10.325.253,14.476,4.91,3.484,3.911,8.313,6.623,13.415,10.531V46.575l15.542-6.694c-1.014-3.819-1.748-6.584-3.248-12.231,10.984,1.97,20.288,3.956,29.693,5.174,3.952.511,8.693.52,12.06-1.214,6.213-3.2,11.055-2.434,14.857,2.841,2.745,3.806,4.672,4.431,8.619,1.475,6.188-4.639,12.976-6.291,20.93-1.1-1.343-2.857-2.684-5.714-5.344-11.38,15.831,1.509,30.459,1.008,43.786,4.934,7.243,2.133,15.121,3.472,23.129,6.712l-4.18,6.081c1.522,2.87,2.911,5.494,4.444,8.384-6.157-.764-12.132-3.316-15.849-1.426-3.293,1.673-4.075,8.288-6.2,13.258,3.985,3.75,8.107,7.63,10.8,10.164-4.146,8.2-7.865,15.557-11.982,23.7-9.029.82-14.058,4.495-13.581,11.555a15.5,15.5,0,0,0,2.79,7.09c4.977,7.462,8.846,14.593,4.7,24.249-2.114,4.917-1.379,11.06-2.082,18.177-11.96-14.516-18.871-28.437-13.4-46.41,2.028-6.654,6.251-14.259-1.531-21.741-.994,3.161-1.8,5.725-2.124,6.745-4.086-.372-9.8-1.563-10.068-.811-1.825,5.122-2.5,10.654-3.553,16.052l2.695.779c-1.287.712-2.5,1.814-3.873,2.075-7.533,1.431-15.145,2.47-22.628,4.106-1.522.333-3.181,2.433-3.8,4.084-2.939,7.833-5.541,15.792-8.864,25.46,4.522.669,8.792.663,12.539,2.062,2.828,1.057,6.21,3.43,7.238,6.047,5.778,14.7,6.8,29.673.143,44.5-.692,1.542-2.125,3.826-3.322,3.895-8.44.484-11.149,5.266-11.178,12.987-.007,1.683-2.006,3.358-2.122,3.537,2.937,5.695,5.666,10.1,7.285,14.888.315.929-3.7,3.323-5.252,4.648-3.92-7.066-7.261-13.084-10.762-19.393l-7.865,2.348c-.774-1.807-1.531-3.578-2.709-6.334L590.836,226.5l14.028,4.849c-4.538,5.552-5.3,9.667-.566,16.843,9.3,14.109,4.467,31.148-12.569,37.2-5.223,1.856-10.816,2.742-16.292,3.8-5.355,1.036-8.425,7.926-5.23,12.262.71.963,1.67,1.737,2.456,2.648,10.549,12.219,10.115,15.7-2.958,25.193-5.02-4.359-10.01-8.687-15.107-13.11-5.013,10.6-3.882,14.292,4.093,21.524,3.047,2.765,4.507,7.28,5.2,11.854-8.646-6.267-14.2-14.237-15.5-24.992-.735-6.11-2.349-12.116-3.757-19.108-3.522,1.458-5.763,2.387-7,2.9-4.424-7.545-8.5-14.494-13.822-23.577-10.263,8.528-19.777,16.117-28.8,24.248-1.5,1.354-.681,5.109-1.3,7.666-1.269,5.275-2.783,10.491-4.2,15.732l-3.987.354c-5.317-13.014-10.634-26.028-14.85-36.351-4.043-4.128-6.154-7.055-8.958-8.971-4.509-3.078-9.331-7.46-14.273-7.82-16.355-1.189-32.442-1.934-44.863-14.8-.535-.555-2.588.358-4.039.605,8.8,20.138,13.384,22.173,22.643,12.875,1.413,1.663,2.536,3.73,4.265,4.885,7.549,5.042,9.17,9.922,1.983,15-11.134,7.863-23.778,13.619-36.02,19.8-.862.434-4.205-2.669-5.47-4.7-2.619-4.2-4.352-8.951-6.92-13.191-4.733-7.807-9.656-15.511-14.812-23.046-2-2.928-4.849-5.277-7.31-7.89l-2.212,1.569c3.179,6.293,6.544,12.5,9.472,18.905,2.2,4.813,2.958,10.5,5.915,14.7a173.343,173.343,0,0,0,18.02,21.2c1.531,1.563,5.657,1.173,8.454.764,3.755-.546,7.381-1.983,11.7-3.22,1.157,10.363-4.187,17.075-10.084,23.525-6.681,7.307-13.336,14.646-20.158,21.82-4.842,5.095-4.6,10.764-2.483,16.767,5.957,16.861,4.822,20.883-10.088,30.36-3.969,2.521-5.34,4.887-4,9.408,1.424,4.8.846,8.986-5.208,10.446a4.746,4.746,0,0,0-2.713,3.065c-4.415,18.43-18.276,24.84-34.979,26.687-2.588.285-5.9-4.3-8.5-7-.681-.71.531-2.964.07-4.211-4.794-12.983-10-25.82-14.51-38.9-1.251-3.625-2.237-8.931-.517-11.722,8.546-13.858,1.572-25-4.657-36.725a26.739,26.739,0,0,1-2.92-11.955c-.038-5.7.385-10.6-7.742-9.45-1.39.2-2.962-1.381-4.536-1.867-3.717-1.153-7.529-3.126-11.228-2.975-6.257.257-12.849.913-18.591,3.19-8.76,3.473-14.577-.522-19.984-5.94-5.227-5.236-10.444-10.713-14.376-16.9-1.713-2.7-.36-7.449-.121-11.252.166-2.646,1.731-5.526,1.075-7.852-4.012-14.212,5.221-22.016,13.776-30.45,2.8-2.765,4.677-6.5,6.869-9.86,3.943-6.043,5.691-14.572,16.534-11.566,3.262.9,7.419-1.755,11.228-2.416,7.946-1.381,15.909-2.915,23.928-3.47,1.943-.136,6.215,4.057,5.883,4.961-2.991,8.149,3.62,8.807,8.037,10.809,5.142,2.329,10.558,4.054,16.545,6.3,2.423-10.065,7.287-8.557,15.1-5.76a40.077,40.077,0,0,0,24.213.575c4.133-1.325,5.873-10.124,9.524-17.16-5.091,0-7.063.031-9.033-.005-8.49-.15-17.565,1.417-20.911-10.162-.625-2.165-5.037-3.235-8.637-5.364V242.38l-2.953.75c-2.792-5.61-4.851-11.778-8.573-16.681-4.041-5.319-9.515-9.6-14.666-13.977-.828-.7-3.746-.085-4.713.895-.674.685-.215,3.506.69,4.54,2.552,2.919,5.879,5.169,8.36,8.136,2.115,2.526,3.479,5.684,5.176,8.561q-.989.683-1.977,1.364c-6.466-5.859-12.233-13.007-19.684-17.051-3.9-2.116-11.785-.32-16,2.5-4.666,3.128-7.831,9.128-10.5,14.454-3.848,7.673-18.378,11.147-24.557,5.1a5.87,5.87,0,0,1-1.587-4.074c.4-5.864,1.128-11.707,1.742-17.586,4.258,0,8.465.441,12.519-.152,2.794-.408,5.378-2.248,8.057-3.448a99.458,99.458,0,0,0-4.655-9.39c-.875-1.41-2.76-2.192-4.039-3.148l14.81-10.834Z" transform="translate(169.672 15.602)" fill="#702113"/>
        <path id="Path_10" data-name="Path 10" d="M279.439,181.19,250.5,187.8c1.4,3.372,2.125,7.652,4.6,10.3,2.176,2.328,6.307,2.826,10.852,4.643-5.865,3.36-11.348,6.5-16.751,9.595-6.231-6.649-12.257-4.926-15.051,3.82-.275.862-1.2,2.1-1.9,2.154-8.7.625-9.938,8.248-13.639,13.814-3.246,4.878-6.99,9.848-11.62,13.287-8,5.944-12.193,12.759-9.961,22.87.414,1.876.058,3.922.058,5.888q-1.152.336-2.306.676c-1.2-3.038-2.783-5.987-3.519-9.134-1.623-6.934-6.416-8.006-12.334-7.272-5.96.737-11.888,1.789-17.861,2.387-7.708.77-13.739,6.025-13.368,13.827.3,6.293-3.8,13.881,4.5,18.732,4.6,2.689,7.634,3.119,11.7-1.054,2.738-2.81,7.144-3.994,13.068-7.088-2.678,8.349-4.364,13.61-6.132,19.117l13.639,2.633c-.208,3.586-.815,6.851-.483,10.019.553,5.292,2.024,8.675,9.175,9.184,7.992.569,14.27.492,19.834-6.134,1.363-1.619,5.922-.909,8.969-.69,11.951.851,23.293,3.09,33.036,11.2,4.1,3.414,9.734,5.293,14.962,6.954,8.367,2.66,10.65,9.2,12.116,16.923,12.459,4.186,25.433,7.538,37.5,12.918,9.512,4.242,8.9,8.622,3.228,16.957-4.026,5.922-6.267,13.294-8.248,20.319-2.8,9.945-4.444,19.87-17.355,22.352-3.1.6-7.493,5.883-7.514,9.036-.07,10.878-7.876,17.283-12.958,25.11-1.374,2.114-6.479,1.805-10.33,2.716.727,1.675,1.735,4,3.351,7.719-14.1,7.186-23.093,18.6-22.592,32.613,0,7.29-.591,12.28.159,17.058a66.909,66.909,0,0,0,4.567,15.179c.8,1.908,3.5,3.02,5.552,4.672-11.648,4.312-25.674-3.291-27.146-15.486-2.667-22.065-4.764-44.23-6.069-66.414-.866-14.705.248-29.519.027-44.279-.043-2.854-1.4-7.258-3.457-8.255-11.991-5.818-17.626-16.721-23.78-27.418-8.2-14.266-7.542-20.022,2.561-33.114,2.176-2.823,3.174-8.308,1.921-11.451-.936-2.349-6.4-2.834-9.786-4.283-2.975-1.274-7.108-1.937-8.6-4.247-9.575-14.839-26.537-15.987-40.466-22.706-5.089-2.454-10.272-4.739-15.233-7.433-3.656-1.986-7.679-4.007-4.928-9.694.493-1.021-1.079-3.235-2-4.715-6.125-9.893-12.329-19.737-20.051-29.3,3.26,8.693,6.52,17.384,9.914,26.431C98.8,272.533,99.855,260.608,95.781,251.2c-1.95-4.5-6.2-8.14-7.565-12.719a181.544,181.544,0,0,1-5.962-28.124c-.468-3.54,1.8-7.509,3.058-11.2,3.734-10.943,6.159-21.8-3.072-32.339l3.163-.951,8.286,11.76,1.225-.727c-1.97-4.585-4.083-9.114-5.886-13.762C83.293,148.345,78.22,133.264,71.76,118.8c-2.868-6.423-8.447-11.635-12.464-16.957L42.719,111.2c1.8-4.384,2.651-6.45,3.5-8.516A101.733,101.733,0,0,1,0,128.135c9.168-5.843,17.456-11.127,25.744-16.41L24.627,109l-10.173-1.449c-1.209-3.6-2.241-6.672-3.273-9.746C9.517,92.842,13.968,84.2,19.1,81.787c6.248-2.94,14.554-3.3,16.352-13.023-4.883-2.03-14.855.822-11.234-12.1H44.879c-1.213-2.572-3.054-4.99-3.455-7.628-.965-6.338-2.2-12.284,8.082-13.184,6.421-.564,12.311-5.77,18.741-8.033C75.43,25.291,82.58,24.5,85.97,34.07c.454,1.28,2.863,1.784,4.205,2.848,5.131,4.064,11.039,7.514,15.114,12.466,9.338,11.348,15.484,13.012,29.521,5.987,1.034-.517,2.04-1.086,2.084.7,3.226,2.08,6.528,4.054,9.661,6.266C151.8,66.044,157,69.828,161.98,73.876c.316.257-1.442,3.067-2.241,4.683,4.363,1.939,8.731,3.886,14.024,6.24,2.433-1.927,5.606-5.8,11.449-.249,5.422,5.145,21.018,3.343,24.661-1.41.546-.712,1.758-1.728,1.59-2.053-3.672-7.169,1.766-11.107,5.2-16,3.605-5.129,6.51-10.751,10.025-16.672l8.293,2.971c-.876,1.321-1.2,2.458-1.822,2.651-12.41,3.853-11.487,15.634-14.452,24.884-.685,2.14,1.57,5.221,2.472,7.869q1.038-.374,2.077-.746l-1.41,7.878,1.921.855c3.914-4.726,7.829-9.454,11.821-14.272-4.106-2.086-8.548-6.535-5.836-13.93,2.275-6.208,13.99-11.584,20.57-10.534,6.492,1.037,12.116,1.59,12.354,10.787.087,3.389,5.716,6.492,8.487,9.987C275.6,82.4,279.1,88.266,272.214,95.5c3.887,4.077,7.744,8.12,12.275,12.869l-8.841,7.073c-2.039-2.689-3.79-5-5.543-7.316l-1.7.224,2.254,18.179-8-3.779c.351,2.436.64,4.433.927,6.428l-1.762,1.027-18.763-18.175c7.733-2.883,18.815-6,14.2-19.175-2.3-6.571-5.234-14.792-16.706-8.517-1.025,3.49-2.031,8.915-4.3,13.744-.987,2.095-4.44,3.788-7.017,4.227-8.18,1.4-36.473,22.852-39.318,30.4-3.092,8.2-.492,14.178,6.938,18.322a45.136,45.136,0,0,1,13.3,11.022l5.53,14.754,7.833-14.575c5.174-1.057,7.072-5.754,6.351-14.255-.584-6.875,3.233-14.123,5.1-21.226,17.239-2.6,18.345,10.776,20.626,23.566l10.294-8.133c1.186,3.074,2.966,5.689,3.089,8.382.37,8.138,3.526,14.214,9.824,19.6,1.914,1.636.369,7.323.407,11.156Z" transform="translate(0 21.119)" fill="#702113"/>
        <path id="Path_11" data-name="Path 11" d="M159.982,54.908c2.3-.468,4.594-.94,7.023-1.439-2.257-3.461-4.41-6.759-5.519-8.461,7.066-4.254,16.364-6.7,17.836-11.537,1.84-6.043,4.663-9.909,9.161-12.183A160.3,160.3,0,0,1,214.123,11.26c2.008-.611,5.185,2.63,8.344,4.388.233-2.252.508-4.923.853-8.268,14.046.976,30.313-9.828,39.909,10.169-2.6,1.625-5.057,3.163-7.983,4.993,3.567,4.791,6.591,8.836,13.587,4.3,2.127-1.383,6.282.367,10.388.766-6.183,9.286-11.474,17.1-16.581,25.025-1.1,1.708-2.624,5.174-2.127,5.577,8.02,6.5-.3,11.577-1.341,17.142-1.682,9.02-4.355,17.89-5.528,26.96-.974,7.534-3.083,12.905-11.138,15.325-8.27,2.485-16.628,5.333-21.52,13.632a7.049,7.049,0,0,1-5.16,3.014c-8.969-.13-11.837,5.986-14.765,12.831-2.216,5.178-5.516,9.9-8.264,14.7-10.706-.992-15.3-8.46-16.43-16.813-1.258-9.277-3.7-19.1,5.409-27.591,4.628-4.314,7.3-11.72,1.576-19.455-2.689-3.631-1.865-10.2-1.843-15.437.056-12.965-2.29-15.571-14.913-18.2-3.125-.647-5.606-4.4-8.384-6.727Z" transform="translate(127.713 4.302)" fill="#702113"/>
        <path id="Path_12" data-name="Path 12" d="M471.583,238.011c3.425-11.758,12.289-8.261,20.995-8.176-1.126,3.5-2.077,6.452-3.183,9.891L502.1,248.5c2.51-6.961,4.777-13.243,7.666-21.257,2.21,4.3,4.639,7.124,5.086,10.229,2,13.945,10.5,24.656,16.843,36.51,1.975,3.692,2.72,9.479,1.3,13.289a225.476,225.476,0,0,1-15.591,34.124c-2.436,4.211-9.118,8.845-13.428,8.454-7.556-.685-17.664-1.616-16.746-14.167.226-3.08-1.328-6.291-2.223-10.124-2.579,1.655-4.755,3.051-6.97,4.471-5.528-14.124-16.9-16.059-32.481-7.28-6.286,3.544-14.1,5.089-21.4,5.808-3.443.34-6.387-3.148-4.177-8.561a25.554,25.554,0,0,0,1.18-13.628c-3.168-17.057,2.02-26.127,18.139-31.594a20.079,20.079,0,0,0,9.3-7.189c5.039-7.22,13.467-11.445,22.977-9.571" transform="translate(338.408 183.435)" fill="#702113"/>
        <path id="Path_13" data-name="Path 13" d="M214.616,16.324c-13.576,6.989-22.945,20.948-40.2,20.991-1.346,8.772-6.188,14.091-14.711,14.98-.24,2.14-.5,4.411-.75,6.683l-22.261-3.9,13.052-12.15c-11.042-15.943-9.833-22.363,6.633-32.781,3.468,8.051,5.084,19.384,21,12.123-13.983,1.549-15.455-5.9-14.794-16.384l14.348-1.173c1.307-.107,2.935.258,3.867-.387,12.575-8.7,27.233-4.059,33.817,12" transform="translate(110.345 0)" fill="#702113"/>
        <path id="Path_14" data-name="Path 14" d="M124.093,66.972H95.738c1.227-4.775-13.012-8.662-1.657-14.391.544-4.032,1.023-7.576,1.607-11.9,14.154-7.294,14.346-7.252,22.52,5.977,1.952-2.49,3.819-4.874,5.687-7.256l1.923.392c-.508,7.99-1.014,15.978-1.724,27.179" transform="translate(72.374 28.903)" fill="#702113"/>
        <path id="Path_15" data-name="Path 15" d="M462.187,216.325c9.249-9.64,18.029-2.539,25.1,1.805,6.743,4.14,11.2,12.011,16.657,18.242L502.6,238.14a58.227,58.227,0,0,1-6.658-4.48c-3.174-2.8-5.512-3.4-10.126-1.536-4.092,1.654-9.822-.759-14.776-1.37.835-12.484-9.143-11.259-16.171-13.657q-1.179-3.914-2.36-7.831l1.036-1.22,8.64,8.279" transform="translate(365.28 167.941)" fill="#702113"/>
        <path id="Path_16" data-name="Path 16" d="M438.3,195.71c4.547,2.273,5.138,3.965,3.19,9.5-1.919,5.454-1.838,12.089-4.851,17.546-1.063,1.925-3.721,4.567-5.277,4.337-6.562-.967-14.192-1.477-15.82-9.864-.338-1.733,2.92-4.486,4.943-6.3,5.664-5.073,11.546-9.9,17.816-15.224" transform="translate(335.414 157.983)" fill="#702113"/>
        <path id="Path_17" data-name="Path 17" d="M328.289,228.369c-.663,5.006-.763,10.171-2.129,14.975a96.2,96.2,0,0,1-7.155,18.347c-1.251,2.387-4.932,3.5-7.507,5.192-1.44-2.987-4.816-6.754-3.981-8.823,3.269-8.093.027-19.822,12.463-23.335,2.2-.622,3.481-4.518,5.185-6.9l3.125.546" transform="translate(248.13 183.905)" fill="#702113"/>
        <path id="Path_18" data-name="Path 18" d="M85.8,49.426c-2.42-7.495,1.937-17.848,10.487-22.017,2.872-1.4,8.376.969,11.919,2.964,5.611,3.163,4.954,7.5-.956,10.308-.544.258-1.088.515-1.646.741-6.39,2.586-12.783,5.167-19.8,8" transform="translate(68.721 21.785)" fill="#702113"/>
        <path id="Path_19" data-name="Path 19" d="M313.362,79.391l-11.613-3.3c-3.454-19.348,7.3-35.8,23.711-42.416,2.433,7.247-4.124,9.154-7.464,12.381-8.566,8.279-11.14,21.224-4.634,33.331" transform="translate(243.059 27.187)" fill="#702113"/>
        <path id="Path_20" data-name="Path 20" d="M467.572,126.529c1.019,5.6,2.624,11.169,2.908,16.805.343,6.826-4.055,8.5-10.381,10.527-5.4,1.731-9.134,8.691-14.1,13.854-3.4-6.806-3.013-11.83,4.11-15.428,14.792-7.473,16.084-13.467,14.754-25.173l2.709-.586" transform="translate(358.346 102.138)" fill="#702113"/>
        <path id="Path_21" data-name="Path 21" d="M247.572,128.039l-.262.58-12.922,3.524V114.429c-7.077-9.911-7.225-12.32-.034-16.16,4.679,8.239,9.455,16.386,13.874,24.723.649,1.222-.4,3.343-.656,5.048" transform="translate(184.872 79.326)" fill="#702113"/>
        <path id="Path_22" data-name="Path 22" d="M132.5,45.817c-.586-6.638-1.081-12.269-1.863-21.161,3.416,4.72,7.034,7.634,7.666,11.095.891,4.872,2.451,6.614,7.359,6.7,4,.07,7.975,1.451,11.966,2.252-2.3,10.563-12.754,10.24-25.128,1.115" transform="translate(105.453 19.903)" fill="#702113"/>
        <path id="Path_23" data-name="Path 23" d="M422.846,231.2c-14.286-6.925-17.658-23.19-30.152-32.214,13.572.6,32.248,20.63,30.152,32.214" transform="translate(316.994 160.625)" fill="#702113"/>
        <path id="Path_24" data-name="Path 24" d="M216.506,93.913c-3.835-4.435-7.24-8.163-10.24-12.193-.271-.363,1.9-3.671,3.239-3.9a52.329,52.329,0,0,1,13.13-.754,9.6,9.6,0,0,1,6.289,3.607c.828,1.164.119,4.7-1.119,5.8-2.953,2.637-6.629,4.464-11.3,7.437" transform="translate(166.485 62.096)" fill="#702113"/>
        <path id="Path_25" data-name="Path 25" d="M516.888,292.5c8.855,6.255-1.565,9.407-3.566,13.247-2.163,4.151-7.122,6.764-10.524,10.368-4.2,4.446-7.379,3.929-10.672-2.113l24.761-21.5" transform="translate(397.259 236.118)" fill="#702113"/>
        <path id="Path_26" data-name="Path 26" d="M103.307,28.171l9.766-7.046,5.836,7.466,6.806-4.84,2.74,1.119-3.746,11.9c-4.666-1.511-11.257,3.607-14.208-4.457-.6-1.646-3.871-2.317-7.193-4.142" transform="translate(83.392 17.053)" fill="#702113"/>
        <path id="Path_27" data-name="Path 27" d="M513.636,278.611c1.907,3.571,4.471,8.375,8.017,15.02-2.335,2.836-6.544,7.945-12.076,14.66,1.592-11.639,2.9-21.2,4.059-29.68" transform="translate(411.345 224.903)" fill="#702113"/>
        <path id="Path_28" data-name="Path 28" d="M433.413,225.359c-4.511-5.978-.971-11.752,2.481-16.451,1.762-2.4,6.562-2.563,10.907-4.052-2.837,6.446-4.822,10.954-7.025,15.954l-6.363,4.549" transform="translate(348.145 165.366)" fill="#702113"/>
        <path id="Path_29" data-name="Path 29" d="M115.926,54.412C113.4,43.782,117,37.984,126.464,38.8c-4.7,4.758.5,15.11-10.538,15.611" transform="translate(92.948 31.26)" fill="#702113"/>
        <path id="Path_30" data-name="Path 30" d="M234.358,106.334c-.4,3.8.116,8.071-1.523,11.223-1.144,2.2-5.246,2.854-8.028,4.2q-.995-1.13-1.988-2.259,3.351-7.14,6.7-14.279l4.834,1.117" transform="translate(179.866 84.934)" fill="#702113"/>
        <path id="Path_31" data-name="Path 31" d="M453.838,132.933c1.167-6.98,1.879-11.25,2.973-17.79,3.884,3.5,6.979,6.287,10.073,9.078l-13.046,8.713" transform="translate(366.351 92.947)" fill="#702113"/>
        <path id="Path_32" data-name="Path 32" d="M158.432,112.065c-.2,2.514-.4,5.026-.5,6.248l6.32,6.68q-6.5,1.472-13,2.94-.808-1.128-1.616-2.254c2.982-4.565,5.962-9.128,8.978-13.719.038-.027-.181.1-.181.1" transform="translate(120.789 90.375)" fill="#702113"/>
        <path id="Path_33" data-name="Path 33" d="M119.85,27.98l15.743-1.205-10.777,11.21c-1.59-3.206-3.183-6.412-4.966-10" transform="translate(96.746 21.614)" fill="#702113"/>
        <path id="Path_34" data-name="Path 34" d="M462.343,299.2c-.164-3.334-.329-6.669-.531-10.782l11.047.905c-3.072,4.567-5.264,7.824-7.457,11.08l-3.06-1.2" transform="translate(372.788 232.823)" fill="#702113"/>
      </g>
    </g>
    <text id="Ratatouille_-_France" data-name="Ratatouille - France" transform="translate(1020.5 1353.5)" fill="#edd975" font-size="25" font-family="ZillaSlab-SemiBold, Zilla Slab" font-weight="600"><tspan x="-107.262" y="0">Ratatouille - </tspan><tspan y="0" fill="#fbefdd">France</tspan></text>
    <text id="Arepas_con_Queso_-_Columbia" data-name="Arepas con 
Queso - Columbia" transform="translate(379.5 1424.5)" fill="#edd975" font-size="25" font-family="ZillaSlab-SemiBold, Zilla Slab" font-weight="600"><tspan x="0" y="0">Arepas con </tspan><tspan x="0" y="35">Queso - </tspan><tspan y="35" fill="#fbefdd">Columbia</tspan></text>
    <text id="Trenette_Al_Pesto_-_Italy" data-name="Trenette Al Pesto - Italy" transform="translate(1125 1152)" fill="#edd975" font-size="25" font-family="ZillaSlab-SemiBold, Zilla Slab" font-weight="600"><tspan x="-129.075" y="0">Trenette Al Pesto - </tspan><tspan y="0" fill="#fbefdd">Italy</tspan></text>
    <text id="Crispy_Pork_Belly_Stir_Fry_-_Toronto_Ontario" data-name="Crispy Pork Belly Stir 
Fry - Toronto, Ontario" transform="translate(363.5 919.5)" fill="#edd975" font-size="25" font-family="ZillaSlab-SemiBold, Zilla Slab" font-weight="600"><tspan x="0" y="0">Crispy Pork Belly Stir </tspan><tspan x="0" y="35">Fry - </tspan><tspan y="35" fill="#fbefdd">Toronto, Ontario</tspan></text>
    <text id="Tamales_-_Mexico" data-name="Tamales - Mexico" transform="translate(368.5 1312.5)" fill="#edd975" font-size="25" font-family="ZillaSlab-SemiBold, Zilla Slab" font-weight="600"><tspan x="-94.813" y="0">Tamales - </tspan><tspan y="0" fill="#fbefdd">Mexico</tspan></text>
    <text id="Empire_Biscuit_-_Scotland" data-name="Empire Biscuit - Scotland" transform="translate(1063 912.5)" fill="#edd975" font-size="25" font-family="ZillaSlab-SemiBold, Zilla Slab" font-weight="600"><tspan x="-138.637" y="0">Empire Biscuit - </tspan><tspan y="0" fill="#fbefdd">Scotland</tspan></text>
    <text id="Beignets_-_New_Orleans_LA" data-name="Beignets - New 
Orleans, LA" transform="translate(250.5 1122.5)" fill="#edd975" font-size="25" font-family="ZillaSlab-SemiBold, Zilla Slab" font-weight="600"><tspan x="0" y="0">Beignets - </tspan><tspan y="0" fill="#fbefdd">New </tspan><tspan fill="#fbefdd"><tspan x="0" y="35">Orleans, LA</tspan></tspan></text>
    <circle id="Ellipse_18" data-name="Ellipse 18" cx="8.5" cy="8.5" r="8.5" transform="translate(904.5 1178.5)" fill="#edd975"/>
    <circle id="Ellipse_19" data-name="Ellipse 19" cx="8.5" cy="8.5" r="8.5" transform="translate(854.5 1170.5)" fill="#edd975"/>
    <circle id="Ellipse_20" data-name="Ellipse 20" cx="8.5" cy="8.5" r="8.5" transform="translate(850.5 1134.5)" fill="#edd975"/>
    <circle id="Ellipse_21" data-name="Ellipse 21" cx="8.5" cy="8.5" r="8.5" transform="translate(554.5 1249.5)" fill="#edd975"/>
    <circle id="Ellipse_22" data-name="Ellipse 22" cx="8.5" cy="8.5" r="8.5" transform="translate(639.5 1312.5)" fill="#edd975"/>
    <circle id="Ellipse_23" data-name="Ellipse 23" cx="8.5" cy="8.5" r="8.5" transform="translate(587.5 1222.5)" fill="#edd975"/>
    <circle id="Ellipse_24" data-name="Ellipse 24" cx="8.5" cy="8.5" r="8.5" transform="translate(617.5 1143.5)" fill="#edd975"/>
    <line id="Line_13" data-name="Line 13" x1="84" y2="220" transform="translate(859 923)" fill="none" stroke="#edd975" stroke-linecap="round" stroke-width="3"/>
    <line id="Line_14" data-name="Line 14" x2="69.5" y2="179" transform="translate(555 969)" fill="none" stroke="#edd975" stroke-linecap="round" stroke-width="3"/>
    <line id="Line_15" data-name="Line 15" x2="194" y2="83" transform="translate(402 1148)" fill="none" stroke="#edd975" stroke-linecap="round" stroke-width="3"/>
    <line id="Line_16" data-name="Line 16" y1="46" x2="87" transform="translate(476 1258)" fill="none" stroke="#edd975" stroke-linecap="round" stroke-width="3"/>
    <line id="Line_17" data-name="Line 17" y1="105" x2="118" transform="translate(530 1321)" fill="none" stroke="#edd975" stroke-linecap="round" stroke-width="3"/>
    <line id="Line_18" data-name="Line 18" x1="76" y2="40" transform="translate(913 1148)" fill="none" stroke="#edd975" stroke-linecap="round" stroke-width="3"/>
    <line id="Line_19" data-name="Line 19" x1="50" y1="147" transform="translate(863 1179)" fill="none" stroke="#edd975" stroke-linecap="round" stroke-width="3"/>
  </g>
</svg>
